<?xml version="1.0" standalone="no"?>
<!DOCTYPE svg PUBLIC "-//W3C//DTD SVG 1.1//EN" "http://www.w3.org/Graphics/SVG/1.1/DTD/svg11.dtd" >
<svg xmlns="http://www.w3.org/2000/svg" xmlns:xlink="http://www.w3.org/1999/xlink" version="1.1">
<metadata></metadata>
<defs>
<font id="permiansanstypefacebold" horiz-adv-x="595" >
<font-face units-per-em="2048" ascent="1536" descent="-512" />
<missing-glyph horiz-adv-x="481" />
<glyph unicode="&#xfb01;" horiz-adv-x="1300" d="M102 844v180h97v158q0 69 24 134t70 119.5t123 87.5t174 33q41 0 76 -4t78 -11t77 -11l-41 -209q-31 4 -88.5 18.5t-99.5 14.5q-123 0 -123 -144v-186l670 20v-854q0 -42 2.5 -89.5t4.5 -74.5l3 -26h-283v829l-397 9v-648q0 -42 2.5 -89.5t4.5 -74.5l3 -26h-282l-2 842z M836 1335q0 67 47 105.5t121 38.5q68 0 109.5 -37.5t41.5 -102.5q0 -71 -45.5 -112t-120.5 -41q-66 0 -109.5 41.5t-43.5 107.5z" />
<glyph unicode="&#xfb02;" horiz-adv-x="1337" d="M102 844v180h93v96q0 202 116 319t299 117q53 0 161.5 -20t182.5 -20q32 0 99.5 9t122.5 23v-1358q0 -42 2.5 -89.5t5.5 -74.5l2 -26h-283v997q0 76 4.5 156t8.5 122l4 42l-21 2q-57 0 -133.5 17.5t-128.5 17.5q-82 0 -125 -47t-43 -138v-145h350l-2 -190l-348 4v-648 q0 -42 2.5 -89.5t4.5 -74.5l3 -26h-284v842z" />
<glyph unicode="&#xfb03;" horiz-adv-x="2037" d="M92 848v176h117v158q0 69 23.5 134t67.5 119.5t117 87.5t163 33q93 0 138 -4t107 -22l-34 -211q-18 4 -50 13t-46 12.5t-43.5 6.5t-65.5 3q-59 0 -83 -42.5t-24 -101.5v-186h457v158q0 69 23.5 134t67.5 119.5t117 87.5t163 33q94 0 140.5 -4t111.5 -22l-41 -209 l-46 11.5t-46 11t-46.5 7t-66.5 3.5q-59 0 -83 -42.5t-24 -101.5v-186l670 20v-854q0 -42 2.5 -89.5t5.5 -74.5l2 -26h-282v827l-398 9v-646q0 -42 3 -89.5t5 -74.5l3 -26h-283l-2 827l-453 9v-646q0 -42 2.5 -89.5t4.5 -74.5l3 -26h-282l-2 844zM1573 1335q0 67 47 105.5 t121 38.5q68 0 109.5 -37.5t41.5 -102.5q0 -71 -45.5 -112t-120.5 -41q-66 0 -109.5 41.5t-43.5 107.5z" />
<glyph unicode="&#xfb04;" horiz-adv-x="2078" d="M92 844v180h117v158q0 69 23.5 134t67.5 119.5t117 87.5t163 33q93 0 138 -4t107 -22l-34 -211q-18 4 -50 13t-46 12.5t-43.5 6.5t-65.5 3q-59 0 -83 -42.5t-24 -101.5v-186h457v96q0 202 116.5 319t299.5 117q53 0 161.5 -20t182.5 -20q32 0 99 9t122 23v-1358 q0 -42 2.5 -89.5t4.5 -74.5l3 -26h-282v895q0 114 4 219.5t8 153.5l4 49l-21 2q-86 0 -157 17.5t-137 17.5q-59 0 -97.5 -48.5t-38.5 -136.5v-145h310l-11 -190l-299 4v-648q0 -42 3 -89.5t5 -74.5l3 -26h-285v827l-457 9v-646q0 -42 2.5 -89.5t4.5 -74.5l3 -26h-282l-2 842 z" />
<glyph horiz-adv-x="0" />
<glyph horiz-adv-x="682" />
<glyph unicode=" "  horiz-adv-x="481" />
<glyph unicode="&#x09;" horiz-adv-x="481" />
<glyph unicode="&#xa0;" horiz-adv-x="481" />
<glyph unicode="!" horiz-adv-x="620" d="M147 129q0 78 51 122t124 44q71 0 113 -41t42 -113q0 -82 -47.5 -127t-124.5 -45q-65 0 -111.5 45.5t-46.5 114.5zM152 1436l315 10l-45 -995h-223z" />
<glyph unicode="&#x22;" horiz-adv-x="819" d="M119 1436l274 10l-63 -498h-195zM451 1436l274 10l-63 -498h-195z" />
<glyph unicode="#" horiz-adv-x="1433" d="M113 285v213h215l90 237h-223v213h305l102 264h260l-98 -264h158l102 264h260l-98 -264h131v-213h-213l-92 -237h207v-213h-287l-111 -285h-262l109 285h-158l-111 -285h-262l109 285h-133zM590 498h160l90 237h-158z" />
<glyph unicode="$" horiz-adv-x="1054" d="M96 981q0 135 93.5 237t265.5 132l-21 299q42 15 112 14.5t109 -14.5l-26 -295q74 -5 145 -24t105 -36l34 -16l-59 -180q-147 61 -301 61q-95 0 -141.5 -39t-46.5 -102q0 -57 33 -99.5t86 -71t117 -55t128 -60.5t117 -78t86 -116.5t33 -166.5q0 -156 -98 -257.5 t-271 -127.5l27 -299q-41 -15 -100.5 -14.5t-100.5 14.5l20 284q-84 4 -169 24.5t-128 38.5l-43 19l58 185q169 -70 334 -70q94 0 148 40.5t54 125.5q0 45 -20.5 80.5t-55 59t-80 44t-95 40t-99 42t-95 56t-80 75.5t-55 106t-20.5 144z" />
<glyph unicode="%" horiz-adv-x="2027" d="M88 1077q0 170 107.5 281.5t285.5 111.5q198 0 306 -98t108 -270q0 -180 -119 -296t-303 -116q-177 0 -281 106.5t-104 280.5zM354 0l979 1434h322l-977 -1434h-324zM395 1094q0 -102 25.5 -164t73.5 -62q92 0 92 201q0 50 -4 86.5t-14 69.5t-30.5 50t-50.5 17 q-28 0 -47 -15t-28.5 -44t-13 -61.5t-3.5 -77.5zM1133 367q0 170 107.5 281.5t285.5 111.5q197 0 305 -98.5t108 -270.5q0 -180 -118.5 -295.5t-302.5 -115.5q-177 0 -281 106.5t-104 280.5zM1440 383q0 -102 25 -163.5t73 -61.5q92 0 92 200q0 50 -3.5 86.5t-13.5 70 t-30.5 50.5t-50.5 17q-28 0 -47 -15t-28.5 -44.5t-13 -62t-3.5 -77.5z" />
<glyph unicode="&#x26;" horiz-adv-x="1478" d="M111 365q0 250 251 387q-160 186 -167 335q-11 161 99 268t306 107q183 0 295.5 -86t112.5 -246q0 -110 -83.5 -220t-211.5 -195l92 -105q97 -114 190 -204q114 148 230 393l164 -82q-146 -291 -252 -432q152 -117 235 -117h21v-168h-66q-107 0 -186.5 24.5t-167.5 92.5 q-178 -137 -406 -137q-124 0 -226.5 43.5t-166 132.5t-63.5 209zM387 410q0 -117 64 -179.5t159 -62.5q112 0 219 74q-86 84 -270 288l-98 109q-74 -102 -74 -229zM459 1137q0 -53 25.5 -112t52.5 -96.5t75 -97.5q70 76 99.5 150t29.5 162q0 66 -34 106.5t-93 40.5 q-73 0 -114 -38.5t-41 -114.5z" />
<glyph unicode="'" horiz-adv-x="487" d="M119 1436l274 10l-63 -498h-195z" />
<glyph unicode="(" horiz-adv-x="753" d="M78 592q0 356 157 632.5t437 417.5l63 -100q-222 -234 -308.5 -437t-86.5 -493q0 -157 23.5 -278.5t79 -229.5t129.5 -199.5t192 -207.5l-84 -103q-294 167 -448 423.5t-154 574.5z" />
<glyph unicode=")" horiz-adv-x="745" d="M-18 1540l84 102q294 -167 448 -423t154 -574q0 -356 -157 -633t-437 -418l-64 101q222 234 309 437.5t87 492.5q0 157 -23.5 278.5t-79 229.5t-129.5 199.5t-192 207.5z" />
<glyph unicode="*" horiz-adv-x="1120" d="M86.5 1374q-7.5 33 7.5 78q20 63 71 87t109.5 8t104.5 -62l123 -123l18 14l-65 135q-33 75 -36 133t33.5 96t114.5 38q71 0 108.5 -38.5t36 -100.5t-37.5 -134l-70 -127l21 -14l116 121q53 55 111.5 70t105.5 -12.5t68 -90.5q30 -97 -33.5 -144.5t-185.5 -47.5l-139 8 l-6 -21l131 -69q43 -22 74.5 -56t46 -72.5t1 -79t-56.5 -71.5q-60 -42 -110.5 -32t-87.5 56.5t-56 118.5l-33 134h-22l-33 -134q-14 -62 -42.5 -103.5t-63.5 -57.5t-73.5 -11.5t-74.5 29.5q-45 30 -57 80t19 105.5t104 93.5l133 73l-6 21l-142 -12q-41 -1 -77 4t-69.5 18.5 t-53 36t-27 55.5z" />
<glyph unicode="+" horiz-adv-x="1048" d="M102 475v217h310v314h221v-314h311v-217h-311v-311h-221v311h-310z" />
<glyph unicode="," horiz-adv-x="563" d="M80 -268q51 47 95 111.5t65 127.5q-57 11 -92 54t-35 104q0 77 49.5 122.5t120.5 45.5q73 0 118 -45.5t45 -140.5q0 -128 -68 -265t-167 -223z" />
<glyph unicode="-" horiz-adv-x="882" d="M143 475v223l596 21v-223z" />
<glyph unicode="." horiz-adv-x="561" d="M115 129q0 78 50.5 122t123.5 44q71 0 113 -41t42 -113q0 -82 -47.5 -127t-124.5 -45q-64 0 -110.5 45.5t-46.5 114.5z" />
<glyph unicode="/" horiz-adv-x="1075" d="M-106 -352l882 1786h271l-881 -1786h-272z" />
<glyph unicode="0" horiz-adv-x="1263" d="M125 674q0 237 57.5 410t178 271.5t294.5 98.5q92 0 171 -38.5t135.5 -105.5t97.5 -155.5t60.5 -189t19.5 -205.5q0 -237 -57.5 -410t-178.5 -271.5t-295 -98.5q-114 0 -207.5 59t-152.5 157.5t-91 221.5t-32 256zM416 778q0 -74 3 -137t11 -136t23.5 -129t39 -103.5 t60.5 -73t84 -25.5q59 0 102.5 43t66 116t32.5 152.5t10 169.5q0 125 -9 223.5t-31 190t-67 141.5t-110 50q-66 0 -110 -38t-66 -109.5t-30.5 -150t-8.5 -184.5z" />
<glyph unicode="1" horiz-adv-x="823" d="M43 1319l471 127h115v-1446h-283v1210l-283 -28z" />
<glyph unicode="2" horiz-adv-x="1046" d="M55 0v143l205 219q184 197 269 354t85 296q0 233 -247 233q-59 0 -125 -7.5t-102 -15.5l-36 -8v168q15 8 44 20t124 32t197 20q195 0 311.5 -99.5t116.5 -287.5q0 -95 -27 -186t-85.5 -185.5t-129 -182t-178.5 -202.5l-121 -131l398 17l188 10l-16 -207h-871z" />
<glyph unicode="3" horiz-adv-x="1103" d="M82 39l37 188q151 -51 266 -51q317 0 317 244q0 76 -48.5 133t-117.5 83t-145 26h-80l11 192h67q109 0 184.5 62.5t75.5 156.5q0 41 -10 70.5t-34.5 54.5t-73.5 38t-121 13q-56 0 -123.5 -8.5t-106.5 -17.5l-39 -9v168q16 8 44.5 20t116 32t175.5 20q197 0 324 -88.5 t127 -241.5q0 -121 -85 -219.5t-231 -128.5q172 -24 274.5 -123t102.5 -252q0 -178 -151 -299.5t-394 -121.5q-88 0 -178.5 15t-137.5 29z" />
<glyph unicode="4" horiz-adv-x="1212" d="M33 440l698 1022h203v-962l192 2l-16 -197h-176v-135q0 -42 2.5 -89.5t5.5 -74.5l2 -26h-276v325h-578zM283 489l389 9v391l6 213h-6q-27 -63 -97 -174z" />
<glyph unicode="5" horiz-adv-x="1077" d="M84 39l41 174q133 -33 264 -33q136 0 215.5 62.5t79.5 189.5q0 135 -131.5 220t-378.5 108l37 674h702l-10 -224l-510 13l-16 -279q594 -79 594 -524q0 -187 -140.5 -313.5t-375.5 -126.5q-196 0 -371 59z" />
<glyph unicode="6" horiz-adv-x="1185" d="M111 573q0 396 195 619t620 293l45 -182q-249 -67 -382 -169.5t-177 -289.5q116 55 268 55q180 0 299 -121t119 -319q0 -97 -33.5 -183.5t-95 -152.5t-156 -104.5t-209.5 -38.5q-121 0 -216 45.5t-155 126t-91 187.5t-31 234zM393 555q0 -180 62 -281.5t161 -101.5 q94 0 147.5 66.5t53.5 187.5q0 128 -57 205.5t-164 77.5q-102 0 -203 -58v-96z" />
<glyph unicode="7" horiz-adv-x="962" d="M66 1210l16 224h844v-84q-161 -346 -259 -655t-196 -722l-287 60q115 441 521 1198l-465 -8q-50 -1 -93.5 -4t-62.5 -6z" />
<glyph unicode="8" horiz-adv-x="1161" d="M123 356q0 256 264 389q-51 34 -87 66t-70 74.5t-51 95.5t-17 115q0 166 122 262t324 96q181 0 284.5 -87.5t106.5 -240.5q1 -106 -61 -192.5t-160 -149.5q57 -37 99 -72.5t81.5 -84.5t60.5 -111t21 -135q0 -88 -38 -164.5t-102 -128.5t-149 -81.5t-178 -29.5 q-200 0 -325 100t-125 279zM358 393q0 -108 62 -163.5t145 -55.5q98 0 152.5 49t54.5 139q0 48 -19.5 91t-59 81t-77.5 65t-96 63q-76 -49 -119 -121.5t-43 -147.5zM432 1114q0 -69 52.5 -124t152.5 -118q124 105 127 236q1 69 -42.5 110.5t-117.5 41.5q-80 0 -126 -41.5 t-46 -104.5z" />
<glyph unicode="9" horiz-adv-x="1183" d="M88 975q0 97 33 183.5t94 152.5t155.5 104.5t209.5 38.5q231 0 362 -156t131 -438q0 -777 -815 -911l-45 182q246 65 380 168t179 289q-116 -53 -268 -53q-180 0 -298 121t-118 319zM365 989q0 -131 63.5 -197.5t159.5 -66.5q111 0 203 57v115q0 172 -58 268.5t-166 96.5 q-95 0 -148.5 -76.5t-53.5 -196.5z" />
<glyph unicode=":" horiz-adv-x="616" d="M143 129q0 78 50.5 122t123.5 44q71 0 113.5 -41.5t42.5 -112.5q0 -82 -47.5 -127t-124.5 -45q-65 0 -111.5 45.5t-46.5 114.5zM143 860q0 78 50.5 122t123.5 44q71 0 113.5 -41.5t42.5 -112.5q0 -82 -47.5 -127t-124.5 -45q-65 0 -111.5 45.5t-46.5 114.5z" />
<glyph unicode=";" horiz-adv-x="624" d="M113 -268q51 47 94.5 111.5t64.5 127.5q-57 11 -92 54t-35 104q0 77 49.5 122.5t120.5 45.5q73 0 118.5 -46t45.5 -140q0 -128 -68 -265t-167 -223zM150 858q0 78 50.5 122t123.5 44q71 0 113 -41t42 -113q0 -82 -47.5 -127t-124.5 -45q-64 0 -110.5 45.5t-46.5 114.5z " />
<glyph unicode="&#x3c;" horiz-adv-x="956" d="M86 471v141l713 430v-321l-377 -178l377 -183v-319z" />
<glyph unicode="=" horiz-adv-x="1161" d="M160 250v213h841v-213h-841zM160 680v213h841v-213h-841z" />
<glyph unicode="&#x3e;" horiz-adv-x="956" d="M158 41v319l377 183l-377 178v321l712 -430v-141z" />
<glyph unicode="?" horiz-adv-x="872" d="M96 1219v190q11 6 33 15t98 23.5t160 14.5q160 0 267.5 -81t107.5 -214q0 -61 -16 -116.5t-42 -98t-57 -81.5t-62.5 -72.5t-57.5 -65t-42 -66t-16 -67.5q0 -27 23.5 -34.5t46.5 12.5l77 -99q-3 -3 -8 -8.5t-23 -19t-37.5 -23.5t-50.5 -18.5t-63 -8.5q-97 0 -155 50.5 t-58 130.5q0 63 26 120t63.5 102.5l75 91t63.5 104.5t26 124q0 68 -49.5 104t-122.5 36q-41 0 -92.5 -11t-82.5 -23zM250 129q0 78 50.5 122t123.5 44q71 0 113.5 -41.5t42.5 -112.5q0 -82 -47.5 -127t-124.5 -45q-65 0 -111.5 45.5t-46.5 114.5z" />
<glyph unicode="@" horiz-adv-x="1945" d="M94 367q0 181 61.5 341t174.5 280.5t286.5 190.5t384.5 70q195 0 351 -53t257.5 -147.5t155.5 -224.5t54 -285q0 -165 -44 -299t-135 -217.5t-215 -83.5q-48 0 -91 15t-68 33t-46.5 43t-28 35.5t-11.5 20.5l-1 -2q-52 -93 -159 -128q-52 -17 -113 -17q-169 0 -278 134.5 t-109 334.5q0 210 119 341.5t301 131.5q43 0 82.5 -8t66.5 -19t47.5 -22t29.5 -19l10 -8l157 63h53v-639q0 -98 56 -98q46 0 82.5 75.5t36.5 217.5q0 99 -16 188t-56 174t-101 146.5t-157.5 99t-218.5 37.5q-133 0 -248.5 -42t-204 -122t-139.5 -207t-51 -286q0 -91 14 -169 t39.5 -138.5t61 -111t79 -85t93.5 -62t103.5 -42t110 -24t113 -8t111.5 4.5v-168q-227 -32 -415 8.5t-316 141.5t-198.5 257t-70.5 351zM801 414q0 -119 49 -189.5t133 -70.5q34 0 67 13t50 25l16 13l-2 457q-3 4 -10.5 10t-39 16t-73.5 10q-80 0 -135 -75t-55 -209z" />
<glyph unicode="A" horiz-adv-x="1302" d="M47 0q11 84 33.5 161.5t66.5 200.5l385 1065l224 13l442 -1194q24 -68 49 -128.5t38 -87.5l13 -26l-292 -12l-115 313h-547q-61 -190 -78 -305h-219zM408 492h415l-178 491q-10 29 -18.5 60.5t-11.5 48.5l-3 16h-8q-11 -64 -31 -125z" />
<glyph unicode="B" horiz-adv-x="1312" d="M184 1434h471q228 0 359 -100t131 -261q0 -243 -242 -313v-8q143 -28 223 -114.5t80 -217.5q0 -132 -73 -228.5t-192 -144t-267 -47.5h-477v1225q0 46 -3.5 98.5t-6.5 81.5zM477 184h197q119 0 184.5 61.5t65.5 170.5q0 108 -61 175.5t-187 67.5h-199v-475zM477 844h297 q4 3 10.5 8.5t23 24.5t29 40.5t23 55t10.5 69.5q0 91 -57 149t-180 58h-156v-405z" />
<glyph unicode="C" horiz-adv-x="1216" d="M115 674q0 234 77.5 410.5t231 276t364.5 99.5q57 0 116.5 -7t125 -18.5t100.5 -15.5l-28 -200q-53 3 -150.5 22t-167.5 19q-177 0 -277.5 -139.5t-100.5 -375.5q0 -95 14.5 -177t47.5 -153.5t82.5 -122t123 -79.5t166.5 -29q72 0 138.5 10t97.5 20l30 9l35 -184 q-12 -7 -35.5 -16.5t-105 -26t-173.5 -16.5q-221 0 -383.5 89t-245.5 245t-83 360z" />
<glyph unicode="D" horiz-adv-x="1521" d="M184 1434h445q377 0 580.5 -175.5t203.5 -515.5q0 -152 -41.5 -276.5t-113.5 -210t-172 -144t-215 -85.5t-244 -27h-430v1225q0 46 -3.5 98.5t-6.5 81.5zM479 188h96q121 0 214.5 26t154.5 71t100 111.5t55.5 143t16.5 169.5q0 257 -129.5 396.5t-400.5 139.5h-107v-1057 z" />
<glyph unicode="E" horiz-adv-x="1224" d="M184 1434h928l-10 -203q-80 10 -174 12l-449 6v-430l531 10l-11 -217l-520 17v-443l418 7q56 1 109.5 4t79.5 5l26 3l-10 -205h-905v1225q0 46 -3.5 98.5t-6.5 81.5z" />
<glyph unicode="F" horiz-adv-x="1183" d="M184 1434h928l-10 -205q-101 10 -197 12l-426 6v-469l531 10l-11 -217l-520 17v-398q0 -42 2.5 -89.5t4.5 -74.5l3 -26h-292v1225q0 46 -3.5 98.5t-6.5 81.5z" />
<glyph unicode="G" horiz-adv-x="1400" d="M111 711q0 161 52 298.5t147 237.5t235.5 156.5t310.5 56.5q66 0 132 -7t138 -18.5t103 -15.5l-29 -200q-30 3 -99 14.5t-135.5 19t-125.5 7.5q-102 0 -180.5 -34.5t-126.5 -90t-78.5 -132t-42 -152t-11.5 -159.5q0 -165 65.5 -282.5t176.5 -174.5t256 -57q25 0 49.5 2.5 t36.5 5.5l12 2v240q0 46 -3 99t-6 83l-3 29l285 10v-618q-197 -51 -371 -51q-147 0 -267.5 26.5t-218 83.5t-164 142.5t-102.5 206t-36 272.5z" />
<glyph unicode="H" horiz-adv-x="1601" d="M184 1436l295 10v-608h643v387q0 46 -3 99t-6 82l-3 30l295 10v-1256q0 -42 2.5 -89.5t4.5 -74.5l3 -26h-293v645h-643v-455q0 -42 2.5 -89.5t4.5 -74.5l3 -26h-292v1225q0 46 -3.5 99t-6.5 82z" />
<glyph unicode="I" horiz-adv-x="675" d="M184 1436l295 10v-1256q0 -42 2.5 -89.5t4.5 -74.5l3 -26h-292v1225q0 46 -3.5 99t-6.5 82z" />
<glyph unicode="J" horiz-adv-x="673" d="M-25 -303q31 40 71 90t54 68t32.5 44t27 44t16.5 43q21 62 21 198v1041q0 46 -3.5 99t-6.5 82l-3 30l295 10v-1260q0 -141 -37 -233q-27 -72 -82.5 -138.5t-200.5 -214.5l-28 -28z" />
<glyph unicode="K" horiz-adv-x="1335" d="M184 1436l295 10v-617h119q43 58 81.5 112.5t65 93.5t56.5 88t43.5 71t39 69.5t30.5 57t30 60t27 53.5h272q-182 -325 -446 -658l426 -633q21 -32 47 -67.5t42 -55.5l15 -20l-313 -10l-441 649h-94v-449q0 -42 2.5 -89.5t4.5 -74.5l3 -26h-292v1225q0 46 -3.5 99t-6.5 82 z" />
<glyph unicode="L" horiz-adv-x="1146" d="M184 1434l295 10v-1258l441 4h20q39 0 77 3q48 4 71 8l24 4l-10 -205h-905v1225q0 46 -3.5 98.5t-6.5 81.5z" />
<glyph unicode="M" horiz-adv-x="1888" d="M184 1436l244 10l432 -658q22 -33 40.5 -67t25.5 -52l8 -18h6q25 57 68 123l430 662l254 10v-1256q0 -42 2.5 -89.5t5.5 -74.5l2 -26h-285v870q0 58 2 114t4 83l2 27l-8 2q-19 -58 -82 -154l-385 -594h-88l-350 526q-33 49 -60.5 95t-39.5 67l-11 21l-6 -2 q15 -89 15 -226v-659q0 -33 2.5 -75.5t5.5 -68.5l2 -26h-223v1202q0 46 -3.5 104.5t-6.5 93.5z" />
<glyph unicode="N" horiz-adv-x="1546" d="M184 1436l207 10l684 -940q20 -29 36.5 -57.5t22.5 -42.5l7 -13l6 2q-10 58 -10 140v690q0 46 -3.5 99t-6.5 82l-3 30l228 10v-1446l-195 -20l-686 940q-14 20 -31 51t-27 52l-10 21h-6q15 -92 15 -145v-709q0 -42 2.5 -89.5t5.5 -74.5l2 -26h-225v1225q0 46 -3.5 99 t-6.5 82z" />
<glyph unicode="O" horiz-adv-x="1554" d="M117 690q0 171 43 310t126.5 241t214.5 157.5t300 55.5q152 0 275 -59.5t201 -159.5t119.5 -226.5t41.5 -265.5q0 -171 -43 -310t-126.5 -240.5t-214.5 -157t-300 -55.5q-152 0 -275 59.5t-201 159t-119.5 226t-41.5 265.5zM408 741q0 -94 11 -174.5t39 -156.5t70.5 -129 t110.5 -85t156 -32q179 0 265.5 140.5t86.5 387.5q0 94 -11 174.5t-39 156.5t-70.5 129.5t-111 85.5t-155.5 32q-179 0 -265.5 -141t-86.5 -388z" />
<glyph unicode="P" horiz-adv-x="1239" d="M184 1434h443q128 0 232.5 -35.5t170 -95.5t100.5 -136.5t35 -160.5q0 -102 -38.5 -193t-108 -159t-174.5 -108t-230 -40h-135v-316q0 -42 2.5 -89.5t4.5 -74.5l3 -26h-292v1225q0 46 -3.5 98.5t-6.5 81.5zM479 696h103q150 0 223.5 79.5t73.5 219.5q0 112 -72.5 181 t-208.5 69h-119v-549z" />
<glyph unicode="Q" horiz-adv-x="1515" d="M119 690q0 172 39.5 310t119 240.5t207.5 158t297 55.5q151 0 271.5 -59.5t194.5 -160t112.5 -226t38.5 -265.5q0 -456 -260 -647l215 -315q25 -36 55 -75t47 -60l17 -21l-302 -10l-249 385q-81 -20 -187 -20q-122 0 -224 39t-173.5 106t-121.5 157.5t-73.5 193.5 t-23.5 214zM410 741q0 -96 9 -175t33.5 -156.5t64.5 -130t106 -85t153 -32.5q91 0 156 38t103 110t55.5 166t17.5 216q0 96 -9 175t-34 156.5t-64.5 130.5t-106 85.5t-153.5 32.5q-91 0 -156 -38t-103 -110t-55 -166t-17 -217z" />
<glyph unicode="R" horiz-adv-x="1325" d="M184 1434h443q264 0 411.5 -121.5t147.5 -333.5q0 -131 -83.5 -231.5t-211.5 -143.5l266 -448q22 -36 48.5 -75t42.5 -60l16 -21l-316 -10l-299 516h-170v-316q0 -42 2.5 -89.5t4.5 -74.5l3 -26h-292v1225q0 46 -3.5 98.5t-6.5 81.5zM479 692h78q173 0 257.5 80t84.5 217 q0 120 -77.5 188t-223.5 68h-119v-553z" />
<glyph unicode="S" horiz-adv-x="1124" d="M125 1047q0 189 127 301t334 112q101 0 231 -19t162 -22l-33 -205q-60 4 -163 22.5t-156 18.5q-221 0 -221 -182q0 -76 49.5 -131.5t179.5 -105.5q210 -81 297.5 -180t87.5 -267q0 -193 -143.5 -301t-403.5 -108q-101 0 -187.5 12.5t-122.5 25.5l-36 13v198q17 -5 47 -13 t120.5 -21t178.5 -13q137 0 201.5 55.5t64.5 131.5q0 43 -7 71.5t-30 62t-73.5 63t-130.5 57.5q-188 67 -280.5 166.5t-92.5 257.5z" />
<glyph unicode="T" horiz-adv-x="1206" d="M47 1229l10 205h1106l-8 -203q-66 6 -164 8h-243v-1049q0 -42 2.5 -89.5t5.5 -74.5l2 -26h-293v1239l-240 4h-17q-30 -1 -64 -3q-44 -4 -71 -7z" />
<glyph unicode="U" horiz-adv-x="1540" d="M170 1436l295 10v-871q0 -212 82 -310.5t250 -98.5q155 0 248.5 101.5t93.5 307.5v650q0 46 -3.5 99t-6.5 82l-3 30l234 10v-871q0 -288 -152 -446t-442 -158q-267 0 -425.5 156.5t-158.5 445.5v652q0 46 -3 99t-6 82z" />
<glyph unicode="V" horiz-adv-x="1318" d="M4 1425l305 13l375 -1028q7 -20 13 -41.5t8 -32.5l2 -12h8v8q0 34 14 76l240 712q61 184 80 314h219q-17 -133 -101 -367l-385 -1065l-235 -12l-443 1194q-24 68 -49 128t-38 86z" />
<glyph unicode="W" horiz-adv-x="1988" d="M37 1427l293 13l252 -891q16 -56 28.5 -115t17.5 -90l5 -31h8q10 109 43 242l213 879l244 10l235 -887q16 -59 27.5 -122t15.5 -97l4 -33h9q12 117 49 244l151 528q54 189 72 357h227q-31 -220 -108 -453l-312 -977l-245 -12l-215 815q-13 50 -25.5 112t-18.5 99l-6 37 h-10q-19 -146 -39 -236l-194 -815l-291 -12l-350 1194q-20 68 -40 128.5t-30 86.5z" />
<glyph unicode="X" horiz-adv-x="1339" d="M45 1434l332 10l317 -539l172 250q37 55 75.5 125.5t58.5 113.5l20 44h250q-6 -17 -18 -47t-61 -119.5t-112 -173.5l-264 -355l359 -546l135 -197l-320 -10l-350 563l-150 -246q-50 -81 -96 -157.5t-67 -113.5l-21 -36h-256q9 19 26.5 52.5t79.5 132t132 190.5l239 327 l-331 515z" />
<glyph unicode="Y" horiz-adv-x="1232" d="M-20 1434l323 10l365 -664l202 410q34 68 59 129t33 88l9 27h239q-73 -164 -155 -324l-293 -530v-390q0 -42 2.5 -89.5t5.5 -74.5l2 -26h-293v582l-381 663q-23 42 -52.5 89t-47.5 74z" />
<glyph unicode="Z" horiz-adv-x="1183" d="M86 0v102l659 1160l-446 -19q-37 -1 -83 -4t-74 -5l-27 -3l10 203h962v-103l-669 -1171l418 18q61 3 121.5 7.5t90.5 8.5l31 3l-10 -197h-983z" />
<glyph unicode="[" horiz-adv-x="624" d="M168 -408v2016h364v-125h-122v-1766h122v-125h-364z" />
<glyph unicode="\" horiz-adv-x="1052" d="M29 1434h250l882 -1790h-252z" />
<glyph unicode="]" horiz-adv-x="624" d="M92 -283h123v1766h-123v125h365v-2016h-365v125z" />
<glyph unicode="^" horiz-adv-x="874" d="M41 1092l391 464h10l392 -464h-254l-144 176l-143 -176h-252z" />
<glyph unicode="_" horiz-adv-x="1001" d="M31 -207h940v-188h-940v188z" />
<glyph unicode="`" horiz-adv-x="1126" d="M88 1528l197 207l327 -371l-141 -152z" />
<glyph unicode="a" horiz-adv-x="1118" d="M84 250q0 60 18 110.5t57.5 95.5t109 77.5t165.5 48.5q113 18 238 18v64q0 94 -56.5 143t-156.5 49q-76 0 -149.5 -11t-109.5 -23l-36 -11v178q15 6 44 15t120.5 24.5t187.5 15.5q120 0 206 -28.5t134 -80t69 -115.5q19 -58 19 -130v-14q-1 -42 -3 -147t-3.5 -192 t-1.5 -132q0 -20 4.5 -28.5t17.5 -8.5q16 0 35.5 10t30.5 20l12 11v-170q-7 -7 -20.5 -16.5t-55 -26t-83.5 -16.5q-130 0 -162 126q-59 -54 -146 -90t-178 -36q-78 0 -138.5 22.5t-96.5 61t-54 85.5t-18 101zM358 279q0 -49 30 -78t87 -29q45 0 98 22t91 52q0 47 4 219 q-98 -4 -174 -27q-136 -40 -136 -159z" />
<glyph unicode="b" horiz-adv-x="1251" d="M143 1536l285 10l-4 -606q120 104 281 104q111 0 197.5 -38.5t139.5 -105.5t80 -151.5t27 -181.5q0 -279 -147 -433t-424 -154q-232 0 -422 81v1264q0 46 -3 99t-7 82zM424 772q4 -78 4 -197v-360q96 -51 180 -51q260 0 260 360q0 149 -56 232.5t-169 83.5 q-106 0 -219 -68z" />
<glyph unicode="c" horiz-adv-x="991" d="M100 479q0 253 137 409t367 156q61 0 153.5 -18.5t137.5 -21.5l-21 -209q-48 4 -140 25.5t-140 21.5q-96 0 -156.5 -80t-60.5 -234q0 -158 77.5 -251t219.5 -93q55 0 110.5 14t83.5 28l29 14v-193q-12 -8 -35 -19t-98 -29.5t-156 -18.5q-235 0 -371.5 138.5t-136.5 360.5 z" />
<glyph unicode="d" horiz-adv-x="1253" d="M102 473q0 137 39.5 247.5t107.5 180t155.5 106.5t187.5 37q146 0 229 -67v348q0 52 -3.5 105t-7.5 80l-3 26l285 10v-1333q0 -46 3 -99t6 -82l3 -30l-266 -10l-7 94q-39 -45 -107.5 -75.5t-164.5 -30.5q-207 0 -332 138t-125 355zM383 520q0 -158 59.5 -252t188.5 -94 q64 0 113.5 23.5t76.5 56.5v524q-62 84 -188 84q-120 0 -185 -90.5t-65 -251.5z" />
<glyph unicode="e" horiz-adv-x="1146" d="M98 496q0 254 143.5 401t370.5 147q124 0 215.5 -44.5t142.5 -122.5q52 -77 70 -177q11 -57 10 -119q0 -47 -6 -96h-669q6 -137 94.5 -219t228.5 -82q76 0 152.5 14t115.5 28l38 14v-191q-5 -3 -14.5 -7.5t-43 -16.5t-71 -21t-97 -16.5t-121.5 -7.5q-257 0 -408 137 t-151 379zM389 657l379 9q-3 105 -43.5 151.5t-120.5 46.5q-87 0 -145.5 -57.5t-69.5 -149.5z" />
<glyph unicode="f" horiz-adv-x="827" d="M90 844v180h117v158q0 167 102 270.5t289 103.5q75 0 172.5 -18.5t138.5 -21.5l-39 -209q-69 5 -144.5 26t-115.5 21q-133 0 -133 -185v-145h309l-10 -190l-299 4v-648q0 -42 2.5 -89.5t4.5 -74.5l3 -26h-282v842z" />
<glyph unicode="g" horiz-adv-x="1150" d="M72 -223q0 172 164 252q-43 46 -43 135q0 43 26 93.5t78 84.5q-85 39 -135.5 120t-50.5 189q0 176 119.5 284.5t332.5 108.5q110 0 213 -40l326 24l-6 -147l-197 2v-9q70 -70 70 -212q0 -69 -27.5 -133.5t-81 -119t-142.5 -87.5t-202 -33q-46 0 -108 8q-11 -17 -11 -37 q0 -27 25 -47t76 -23l198 -12q180 -10 265.5 -96.5t85.5 -233.5q0 -74 -30 -141t-87.5 -122t-152.5 -88t-214 -34h-21q-90 0 -168 15q-86 17 -155 53.5t-108 99t-39 146.5zM305 -145q0 -101 82.5 -162.5t218.5 -61.5q109 0 173.5 49.5t64.5 122.5q0 66 -45 95t-144 34 l-166 11q-103 7 -159 28q-25 -50 -25 -116zM387 672q0 -94 42 -152.5t110 -58.5q73 0 113 58t40 147q0 97 -40.5 150.5t-110.5 53.5q-72 0 -113 -57.5t-41 -140.5z" />
<glyph unicode="h" horiz-adv-x="1241" d="M150 1536l284 10l-4 -624q75 61 151 91.5t185 30.5q154 0 237.5 -96t83.5 -262v-516q0 -33 2.5 -75.5t5.5 -68.5l3 -26h-283v608q0 123 -37 177.5t-129 54.5q-14 0 -27.5 -1t-24 -2t-24 -5t-20.5 -5.5t-21.5 -7.5t-19 -7.5t-20.5 -9.5t-19.5 -9.5t-21.5 -11t-21 -11.5 q4 -40 4 -195v-405q0 -33 2.5 -75.5t5.5 -68.5l2 -26h-282v1325q0 46 -3 99t-6 82z" />
<glyph unicode="i" d="M131 1370q0 67 47 105t121 38q69 0 110.5 -37t41.5 -102q0 -71 -45.5 -112t-120.5 -41q-66 0 -110 41.5t-44 107.5zM150 1024l284 10v-844q0 -42 2.5 -89.5t5.5 -74.5l2 -26h-282v813q0 46 -3 99t-6 82z" />
<glyph unicode="j" d="M-27 -424q38 49 56 74t46.5 72.5t53.5 101.5q16 32 24 76.5t8.5 69.5t0.5 83v760q0 46 -3 99t-6 82l-3 30l284 10v-981q0 -155 -39 -227q-29 -55 -78.5 -118t-89.5 -105.5t-125 -128.5zM139 1370q0 67 47 105t121 38q69 0 110.5 -37t41.5 -102q0 -71 -45.5 -112 t-120.5 -41q-66 0 -110 41.5t-44 107.5z" />
<glyph unicode="k" horiz-adv-x="1128" d="M150 1538l284 10v-938h66l125 178q53 76 90.5 135t48.5 80l12 21h268q-74 -129 -219 -299l-137 -154l297 -415q27 -38 58 -77t48 -59l17 -20l-320 -10l-296 438h-58v-238q0 -42 2.5 -89.5t5.5 -74.5l2 -26h-282v1327q0 46 -3 99t-6 82z" />
<glyph unicode="l" d="M150 1538l284 10v-1358q0 -42 2.5 -89.5t5.5 -74.5l2 -26h-282v1327q0 46 -3 99t-6 82z" />
<glyph unicode="m" horiz-adv-x="1839" d="M150 1024l270 10l6 -112q76 62 142 92t161 30q91 0 165.5 -38t106.5 -103q162 141 345 141q158 0 249 -94.5t91 -249.5v-530q0 -33 2.5 -75.5t5.5 -68.5l2 -26h-283v608q0 232 -164 232q-45 0 -83 -10t-60.5 -22t-61.5 -38q11 -64 11 -111v-489q0 -33 2.5 -75.5 t4.5 -68.5l3 -26h-283v608q0 119 -35.5 175.5t-113.5 56.5q-74 0 -203 -70q4 -40 4 -195v-405q0 -33 2.5 -75.5t5.5 -68.5l2 -26h-282v813q0 46 -3 99t-6 82z" />
<glyph unicode="n" horiz-adv-x="1239" d="M150 1024l270 10l6 -114q78 63 155 93.5t195 30.5q152 0 231.5 -99t79.5 -281v-494q0 -33 2.5 -75.5t5.5 -68.5l3 -26h-283v633q0 102 -37.5 154.5t-122.5 52.5q-57 0 -108 -17.5t-117 -52.5q4 -56 4 -154v-446q0 -33 2.5 -75.5t5.5 -68.5l2 -26h-282v813q0 46 -3 99 t-6 82z" />
<glyph unicode="o" horiz-adv-x="1196" d="M102 477q0 264 140 415.5t383 151.5q219 0 344 -134.5t125 -362.5q0 -263 -140 -415t-383 -152q-219 0 -344 135t-125 362zM379 528q0 -169 55 -266.5t168 -97.5q105 0 160 83t55 238q0 185 -50 281t-173 96q-106 0 -160.5 -87.5t-54.5 -246.5z" />
<glyph unicode="p" horiz-adv-x="1257" d="M150 1024l270 10l6 -98q64 57 128 82.5t173 25.5q131 0 230.5 -67.5t148.5 -174.5t49 -235q0 -272 -137.5 -429.5t-355.5 -157.5q-67 0 -124 15t-80 29l-24 15v-381q0 -33 2.5 -75.5t5.5 -68.5l2 -26h-282v1325q0 46 -3 99t-6 82zM430 772q4 -32 4 -156v-391 q8 -7 22.5 -17t62 -27t97.5 -17q124 0 191 97t67 245q0 174 -62.5 254t-162.5 80q-64 0 -112.5 -16.5t-106.5 -51.5z" />
<glyph unicode="q" horiz-adv-x="1273" d="M100 496q0 248 150 398t403 150q148 0 271 -73l123 53h65v-1366q0 -33 2.5 -75.5t5.5 -68.5l2 -26h-282v608q-4 -5 -12 -12.5t-35 -27.5t-57 -35.5t-77.5 -28t-97.5 -12.5q-114 0 -203.5 39.5t-145 109.5t-84 163t-28.5 204zM381 514q0 -141 68.5 -235.5t193.5 -94.5 q51 0 100.5 19.5t72.5 38.5l24 20v531q-32 21 -50 31.5t-60 24t-85 13.5q-110 0 -187 -94.5t-77 -253.5z" />
<glyph unicode="r" horiz-adv-x="909" d="M150 1024l274 10l4 -155q62 87 111 126t106 39q40 0 76 -12.5t85 -36.5t87 -37l-100 -219q-29 11 -79 34.5t-81.5 34.5t-57.5 11q-58 0 -145 -80q4 -49 4 -145v-424q0 -33 2.5 -75.5t5.5 -68.5l2 -26h-282v813q0 46 -3 99t-6 82z" />
<glyph unicode="s" horiz-adv-x="931" d="M106 741q0 143 103 223t252 80q80 0 187 -19t151 -21l-21 -207q-60 4 -161.5 24.5t-165.5 20.5q-54 0 -86.5 -18.5t-32.5 -55.5q0 -40 35 -72t149 -71q164 -57 243 -134t79 -202q0 -156 -105.5 -232.5t-288.5 -76.5q-71 0 -180 19.5t-151 23.5l20 208q39 -4 149.5 -26.5 t176.5 -22.5q78 0 115.5 19t37.5 63q0 40 -45 71t-151 71q-86 32 -138 58.5t-94 65t-60 89.5t-18 122z" />
<glyph unicode="t" horiz-adv-x="884" d="M84 846v155l117 23l145 238h121v-238h338l-6 -188l-332 4v-473q0 -98 40 -146.5t126 -48.5q38 0 81 8t67 16l24 9v-182q-94 -43 -211 -43q-200 0 -298.5 80.5t-98.5 256.5v361q0 34 2.5 75.5t4.5 66.5l3 24z" />
<glyph unicode="u" horiz-adv-x="1241" d="M143 1024h283v-633q0 -102 37.5 -154.5t122.5 -52.5q57 0 108 17.5t117 52.5q-4 56 -4 154v446q0 33 -2.5 75.5t-4.5 68.5l-3 26h282v-813q0 -46 3.5 -99t6.5 -82l3 -30l-271 -10l-6 114q-78 -63 -155 -93.5t-195 -30.5q-152 0 -231.5 99t-79.5 281v494q0 33 -3 75.5 t-5 68.5z" />
<glyph unicode="v" horiz-adv-x="1056" d="M23 1024l296 10l205 -604q16 -48 28 -92t16 -64l3 -20h9q10 68 41 162l106 319q27 86 39.5 141t26.5 148h215q-14 -166 -84 -346l-267 -678l-247 -10l-301 823q-20 56 -41.5 108.5t-33.5 77.5z" />
<glyph unicode="w" horiz-adv-x="1626" d="M39 1024l270 10l172 -577q15 -49 25 -99t13 -75l3 -25h8q8 84 43 211l95 348q17 64 27.5 116t12.5 71l1 20l217 14l176 -565q16 -52 30 -106.5t20 -83.5l5 -29h8q14 100 49 223l68 232q48 182 57 315h213q-4 -94 -26 -187.5t-66 -226.5l-209 -610l-247 -10l-158 526 q-14 44 -25 90.5t-15 71.5l-5 24h-8q-14 -91 -43 -206l-125 -496l-263 -10l-251 823q-17 57 -35 110t-28 77z" />
<glyph unicode="x" horiz-adv-x="1134" d="M47 1024l320 10l231 -354l64 98q55 84 93 145.5t49 80.5l11 20h238q-95 -156 -232 -336l-119 -158l285 -374l121 -156l-320 -10l-256 358l-47 -69q-54 -79 -97.5 -149t-59.5 -100l-17 -30h-262q108 160 221 299l156 195l-250 360q-29 43 -61.5 85.5t-50.5 63.5z" />
<glyph unicode="y" horiz-adv-x="1073" d="M25 1024l301 10l196 -600q17 -54 30.5 -104.5t17.5 -74.5l5 -24h9q18 96 53 207l94 293q4 12 16.5 50.5t16 50.5t12.5 42.5t13 49t8.5 46t7.5 54.5h221q-14 -173 -115 -414l-258 -628q-46 -112 -89 -237.5t-63 -194.5l-20 -70l-264 12q59 164 178 379l33 59l-317 883 q-20 56 -41.5 108.5t-33.5 77.5z" />
<glyph unicode="z" horiz-adv-x="993" d="M92 0v82l465 758l-233 -11q-42 -1 -96.5 -5t-87.5 -8l-34 -3l15 211h772v-82l-467 -762l264 6q46 1 99 5t83 8l29 4l-16 -203h-793z" />
<glyph unicode="{" horiz-adv-x="714" d="M31 645q227 30 227 219v441q0 152 60.5 227.5t193.5 75.5h111v-146q-76 0 -99.5 -36.5t-23.5 -161.5v-314q0 -133 -43.5 -219.5t-134.5 -136.5q178 -92 178 -391v-316q0 -94 24.5 -132t98.5 -38v-125h-111q-132 0 -193 76t-61 228v329q0 131 -12 197.5t-41 97.5 q-74 -28 -146 -33z" />
<glyph unicode="|" horiz-adv-x="577" d="M168 -530v2097h242v-2097h-242z" />
<glyph unicode="}" horiz-adv-x="714" d="M92 -262q76 0 99.5 37t23.5 162v313q0 133 43.5 219.5t134.5 136.5q-178 92 -178 391v316q0 94 -24.5 132t-98.5 38v125h111q133 0 193.5 -75.5t60.5 -227.5v-330q0 -131 12 -197.5t41 -97.5q74 28 145 33l29 -158q-227 -30 -227 -219v-440q0 -152 -61 -228t-193 -76 h-111v146z" />
<glyph unicode="~" horiz-adv-x="1132" d="M100 555q1 4 4 10.5t15 26t26.5 37t39 39t53.5 37t70 26t87 10.5q69 0 124.5 -14.5t86 -31.5t74.5 -31.5t92 -14.5q33 0 60 7.5t42.5 18t26.5 21t15 18.5l4 7l112 -137q-3 -8 -9 -20.5t-29 -44.5t-51.5 -57t-79 -45t-109.5 -20q-61 0 -115.5 14.5t-89 31.5t-85 31.5 t-104.5 14.5q-28 0 -53 -7.5t-41 -17.5t-27.5 -20.5t-16.5 -17.5l-5 -8z" />
<glyph unicode="&#xa1;" horiz-adv-x="616" d="M141 870q0 82 47.5 127t124.5 45q65 0 111.5 -45t46.5 -114q0 -78 -50.5 -122t-123.5 -44q-71 0 -113.5 41t-42.5 112zM152 -434l45 995h223l47 -985z" />
<glyph unicode="&#xa2;" horiz-adv-x="1015" d="M92 479q0 215 101.5 363.5t277.5 189.5v217h201v-209q24 -4 66 -13t77.5 -15t71.5 -8l-21 -209q-48 4 -140 25.5t-140 21.5q-96 0 -156.5 -80t-60.5 -234q0 -146 75.5 -245t200.5 -99q61 0 122 14t91 28l31 14v-193q-82 -47 -217 -61v-219h-201v225q-179 36 -279 166.5 t-100 320.5z" />
<glyph unicode="&#xa3;" horiz-adv-x="1177" d="M125 578v192h143l-14 172q-20 234 110.5 378t370.5 144q62 0 153.5 -19t137.5 -22l-20 -209q-56 5 -145 26.5t-136 21.5q-75 0 -120 -24.5t-58.5 -64.5t-16.5 -91t5 -103l16 -209h326v-192h-312q7 -143 -23 -242t-122 -152l467 13q43 1 92 4t77 5l27 3l-10 -209h-946v172 q2 1 6 2t17.5 6.5t24.5 14t28 23t29 33.5t26.5 47t20 62.5t10.5 79.5t-2 99l-4 39h-158z" />
<glyph unicode="&#xa5;" horiz-adv-x="1392" d="M72 1434l323 10l365 -664l203 410q34 68 59 129t33 88l8 27h240q-50 -129 -156 -324l-213 -385h213v-193h-293v-157h293v-193h-293q0 -41 2.5 -86.5t5.5 -70.5l2 -25h-293v182h-266v193h266v157h-266v193h184l-299 520q-24 41 -53.5 88t-46.5 74z" />
<glyph unicode="&#xa6;" horiz-adv-x="548" d="M154 293h241v-823h-241v823zM154 764v803h241v-803h-241z" />
<glyph unicode="&#xa7;" horiz-adv-x="1044" d="M117 766q0 148 147 235q-57 70 -57 179q0 132 107 208t278 76q72 0 170 -19t145 -22l-16 -186q-61 4 -157.5 24.5t-160.5 20.5q-54 0 -82 -28.5t-28 -71.5q0 -37 25.5 -65.5t66.5 -49.5t91 -42.5t100 -50t91 -65.5t67 -96.5t26 -134.5q0 -147 -148 -238q58 -71 58 -176 q0 -132 -107 -208t-278 -76q-72 0 -171 18.5t-145 21.5l17 187q61 -4 157 -24.5t160 -20.5q54 0 82.5 28.5t28.5 71.5q0 37 -25.5 65.5t-66.5 49.5t-91 42.5t-100 50t-91 65.5t-67 96.5t-26 134.5zM373 788q0 -32 7.5 -58t24 -46.5t33.5 -36t45 -30.5t49 -25t55 -24.5 t54 -24.5q33 60 33 112q0 36 -12.5 66.5t-28.5 50t-48 40.5t-54 31t-65 29t-63 29q-30 -54 -30 -113z" />
<glyph unicode="&#xa8;" horiz-adv-x="1028" d="M174 1450q0 79 48.5 123.5t123.5 44.5q73 0 114.5 -42.5t41.5 -117.5q0 -83 -46 -128.5t-124 -45.5q-69 0 -113.5 45.5t-44.5 120.5zM600 1450q0 79 48.5 123.5t123.5 44.5q73 0 114.5 -42.5t41.5 -117.5q0 -83 -46 -128.5t-124 -45.5q-69 0 -113.5 45.5t-44.5 120.5z " />
<glyph unicode="&#xa9;" horiz-adv-x="1669" d="M102 725q0 204 96 374.5t265 269.5t373 99q203 0 371.5 -99t264 -269.5t95.5 -374.5q0 -151 -57.5 -288t-154.5 -236.5t-233 -158t-286 -58.5q-205 0 -373.5 98t-264.5 268t-96 375zM365 725q0 -247 127.5 -396t343.5 -149q208 0 339.5 151.5t131.5 393.5 q0 244 -132 395.5t-339 151.5q-97 0 -183 -40t-150 -110.5t-101 -173.5t-37 -223zM477 713q0 202 108 319t302 117q47 0 120 -15.5t109 -17.5l-31 -182q-36 4 -95.5 20.5t-96.5 16.5q-64 0 -104.5 -62.5t-40.5 -158.5q0 -242 182 -242q43 0 89 10t71 20l24 11v-172 q-10 -6 -28 -14.5t-75.5 -22.5t-117.5 -14q-191 0 -303.5 108t-112.5 279z" />
<glyph unicode="&#xab;" horiz-adv-x="1142" d="M51 473v59l103 95q190 175 292 360l189 -98q-44 -98 -115 -202t-135 -165l-25 -20l25 -23q127 -110 242 -362l-181 -99q-104 187 -292 361zM481 473v59l103 95q114 104 169.5 170t104.5 159l186 -98q-73 -190 -229 -336l-24 -20l24 -23q76 -66 124 -139t95 -190l-178 -97 q-48 93 -101 154.5t-171 171.5z" />
<glyph unicode="&#xac;" horiz-adv-x="1212" d="M160 467v233h884v-419h-219v186h-665z" />
<glyph unicode="&#xad;" horiz-adv-x="882" d="M143 475v223l596 21v-223z" />
<glyph unicode="&#xae;" horiz-adv-x="1148" d="M104 1077q0 85 26.5 159t80.5 135.5t147.5 97.5t216.5 36t216.5 -36t148 -97.5t81 -135.5t26.5 -159q0 -84 -27 -158t-81.5 -135t-148 -97t-215.5 -36q-99 0 -179 23.5t-134 63.5t-90 95.5t-52 116t-16 127.5zM299 1077q0 -87 20 -147t59 -92t86.5 -45t110.5 -13 t109.5 13t85.5 44.5t59.5 91.5t20.5 148q0 75 -14 129.5t-37 87.5t-59.5 52.5t-75 26.5t-89.5 7q-65 0 -111 -12t-85.5 -43t-59.5 -93t-20 -155zM383 1286h205q109 0 156 -34t47 -101q0 -32 -21 -61t-55 -41l16 -45q8 -24 19.5 -51t19.5 -41l8 -15h-176l-29 111h-16v-41 l4 -70h-170v293q0 21 -2 45t-4 37zM557 1102h29q32 0 32 43q0 25 -8 35t-28 10h-25v-88z" />
<glyph unicode="&#xaf;" horiz-adv-x="745" d="M92 1104v213h561v-213h-561z" />
<glyph unicode="&#xb0;" horiz-adv-x="884" d="M90 1223q0 154 90 243.5t262 89.5q173 0 263 -89.5t90 -243.5t-90.5 -244t-262.5 -90t-262 90t-90 244zM336 1223q0 -144 106 -144q107 0 107 144q0 143 -107 143q-106 0 -106 -143z" />
<glyph unicode="&#xb1;" horiz-adv-x="1173" d="M145 82v229h883v-229h-883zM145 590v233h318v244h246v-244h319v-233h-319v-242h-246v242h-318z" />
<glyph unicode="&#xb4;" horiz-adv-x="602" d="M88 1362l328 371l198 -205l-383 -316z" />
<glyph unicode="&#xb5;" horiz-adv-x="1214" d="M152 1024h303v-567q0 -87 13.5 -146t39 -88t53 -40t64.5 -11q32 0 70.5 6.5t61 13t21.5 7.5q-20 37 -20 176v479q0 33 -2.5 75.5t-5.5 68.5l-2 26h303v-856l20 -170l-248 -6l-16 112q-49 -61 -111 -92.5t-155 -31.5q-80 0 -146 46t-100 117l-8 -4q68 -105 108.5 -228 t40.5 -245v-80h-274v1268q0 33 -2.5 75.5t-5.5 68.5z" />
<glyph unicode="&#xb6;" horiz-adv-x="1531" d="M117 506q0 111 36 204.5t106.5 164t183.5 110t257 39.5h635v-1024h-635q-272 0 -427.5 134.5t-155.5 371.5zM391 524q0 -145 83 -231t204 -86h20v624h-20q-139 0 -213 -86t-74 -221zM930 207h176v627h-176v-627z" />
<glyph unicode="&#xb7;" horiz-adv-x="538" d="M127 567q0 59 44 100.5t101 41.5q59 0 99.5 -41t40.5 -101q0 -59 -42.5 -100t-101.5 -41t-100 40.5t-41 100.5z" />
<glyph unicode="&#xb8;" horiz-adv-x="491" d="M0 -369l49 125q79 -20 156 -20q37 0 52 11t15 34q0 27 -33 34.5t-85 -16.5l-27 31l76 211l119 8v-115q84 -8 132 -47t48 -108q0 -85 -73 -137t-191 -52q-132 0 -238 41z" />
<glyph unicode="&#xbb;" horiz-adv-x="1142" d="M98 858l187 98q49 -93 104.5 -159t169.5 -170l103 -95v-59l-103 -94q-118 -110 -171 -171.5t-101 -154.5l-178 97q47 117 95 190t124 139l26 23l-26 20q-157 148 -230 336zM508 889l188 98q101 -183 293 -360l103 -95v-59l-103 -94q-190 -176 -293 -361l-180 99 q115 252 242 362l26 23l-26 20q-64 61 -135 165t-115 202z" />
<glyph unicode="&#xbc;" horiz-adv-x="1638" d="M96 1364l381 86l70 -4v-782h-246v575l-186 -6zM102 104l1190 1350l156 -135l-1192 -1356zM831 250l369 577l217 -18v-514h129l-8 -162h-121v-47l4 -106h-235v153h-322zM1020 297l164 2v129q0 30 3.5 72.5t6.5 69.5l4 28h-8q-35 -84 -72 -143z" />
<glyph unicode="&#xbd;" horiz-adv-x="1644" d="M94 1364l381 86l70 -4v-782h-246v575l-186 -6zM100 104l1190 1350l156 -135l-1192 -1356zM940 0v123l92 82q125 112 173 178t48 135q0 55 -34 76.5t-95 21.5q-36 0 -73 -6t-57 -12l-19 -6v147q12 6 34 14.5t95 23t151 14.5q124 0 188 -60.5t64 -165.5t-69.5 -202.5 t-239.5 -219.5l180 25q38 5 78.5 15t61.5 17l22 7l-6 -207h-594z" />
<glyph unicode="&#xbe;" horiz-adv-x="1724" d="M109 684l30 150q64 -21 148 -21q143 0 143 98q0 97 -172 97h-41l14 137h37q133 0 133 69q0 38 -30 58t-84 20q-35 0 -71.5 -8t-55.5 -16l-19 -8v155q9 4 27 10.5t76.5 17.5t122.5 11q131 0 208.5 -51.5t77.5 -155.5q0 -58 -40 -102.5t-111 -59.5q85 -12 134.5 -62 t49.5 -126q0 -46 -18.5 -87.5t-57.5 -77.5t-108 -57.5t-160 -21.5q-74 0 -132 7.5t-80 15.5zM188 104l1190 1350l156 -135l-1192 -1356zM918 250l368 577l217 -18v-514h129l-8 -162h-121v-47l4 -106h-235v153h-322zM1106 297l164 2v129q0 30 3.5 72.5t6.5 69.5l4 28h-8 q-35 -84 -72 -143z" />
<glyph unicode="&#xbf;" horiz-adv-x="856" d="M100 -168q0 83 30 156.5t73.5 125.5t86.5 98.5t73 94t30 92.5q0 34 -23 39.5t-46 -16.5l-78 98q3 3 8 8.5t23 19t37.5 23.5t50.5 18.5t63 8.5q95 0 154 -50t59 -130q0 -53 -19 -103t-47 -86.5t-61 -78.5t-61 -79.5t-47 -88.5t-19 -107q0 -70 45.5 -104.5t126.5 -34.5 q41 0 92.5 11t82.5 23l32 11v-191q-11 -6 -33.5 -15t-103 -23.5t-174.5 -14.5q-93 0 -173.5 35t-131 103.5t-50.5 156.5zM283 858q0 82 47.5 127t124.5 45q64 0 110.5 -45.5t46.5 -114.5q0 -78 -50.5 -121.5t-123.5 -43.5q-71 0 -113 41t-42 112z" />
<glyph unicode="&#xc0;" horiz-adv-x="1302" d="M47 0q11 84 33.5 161.5t66.5 200.5l385 1065l224 13l442 -1194q24 -68 49 -128.5t38 -87.5l13 -26l-292 -12l-115 313h-547q-61 -190 -78 -305h-219zM252 1853l197 207l327 -370l-141 -152zM408 492h415l-178 491q-10 29 -18.5 60.5t-11.5 48.5l-3 16h-8 q-11 -64 -31 -125z" />
<glyph unicode="&#xc1;" horiz-adv-x="1302" d="M47 0q11 84 33.5 161.5t66.5 200.5l385 1065l224 13l442 -1194q24 -68 49 -128.5t38 -87.5l13 -26l-292 -12l-115 313h-547q-61 -190 -78 -305h-219zM408 492h415l-178 491q-10 29 -18.5 60.5t-11.5 48.5l-3 16h-8q-11 -64 -31 -125zM459 1686l327 370l199 -205 l-383 -315z" />
<glyph unicode="&#xc2;" horiz-adv-x="1302" d="M47 0q11 84 33.5 161.5t66.5 200.5l385 1065l224 13l442 -1194q24 -68 49 -128.5t38 -87.5l13 -26l-292 -12l-115 313h-547q-61 -190 -78 -305h-219zM285 1700l309 254h78l303 -242l-121 -149l-221 151l-223 -155zM408 492h415l-178 491q-10 29 -18.5 60.5t-11.5 48.5 l-3 16h-8q-11 -64 -31 -125z" />
<glyph unicode="&#xc3;" horiz-adv-x="1302" d="M47 0q11 84 33.5 161.5t66.5 200.5l385 1065l224 13l442 -1194q24 -68 49 -128.5t38 -87.5l13 -26l-292 -12l-115 313h-547q-61 -190 -78 -305h-219zM250 1606q16 98 84 170.5t170 72.5q60 0 107.5 -18.5t81.5 -36.5t61 -18q31 0 51.5 25t25.5 54l164 -40 q-19 -116 -85.5 -180t-149.5 -64q-57 0 -104 18.5t-83 37t-65 18.5q-34 0 -57.5 -24.5t-32.5 -55.5zM408 492h415l-178 491q-10 29 -18.5 60.5t-11.5 48.5l-3 16h-8q-11 -64 -31 -125z" />
<glyph unicode="&#xc4;" horiz-adv-x="1302" d="M47 0q11 84 33.5 161.5t66.5 200.5l385 1065l224 13l442 -1194q24 -68 49 -128.5t38 -87.5l13 -26l-292 -12l-115 313h-547q-61 -190 -78 -305h-219zM246 1753q0 79 48.5 123.5t123.5 44.5q73 0 114 -42.5t41 -117.5q0 -83 -46 -128.5t-124 -45.5q-69 0 -113 45.5 t-44 120.5zM408 492h415l-178 491q-10 29 -18.5 60.5t-11.5 48.5l-3 16h-8q-11 -64 -31 -125zM672 1753q0 79 48.5 123.5t123.5 44.5q73 0 114 -42.5t41 -117.5q0 -83 -46 -128.5t-124 -45.5q-69 0 -113 45.5t-44 120.5z" />
<glyph unicode="&#xc5;" horiz-adv-x="1302" d="M47 0q11 84 33.5 161.5t66.5 200.5l385 1065l224 13l442 -1194q24 -68 49 -128.5t38 -87.5l13 -26l-292 -12l-115 313h-547q-61 -190 -78 -305h-219zM379 1772q0 103 73 165t183 62t182 -62t72 -165q0 -104 -72 -166t-182 -62t-183 62.5t-73 165.5zM408 492h415l-178 491 q-10 29 -18.5 60.5t-11.5 48.5l-3 16h-8q-11 -64 -31 -125zM584 1772q0 -32 14.5 -55t36.5 -23q21 0 33 22t12 56q0 33 -12 53t-33 20q-22 0 -36.5 -20.5t-14.5 -52.5z" />
<glyph unicode="&#xc6;" horiz-adv-x="1894" d="M-10 0q27 84 65 161t109 201l618 1072h1000l-10 -203l-623 18v-430l530 10l-10 -217l-520 17v-443l633 19l-10 -205h-906v326h-493l-8 -17q-92 -166 -140 -309h-235zM475 512h391v729h-6q-45 -111 -98 -207z" />
<glyph unicode="&#xc7;" horiz-adv-x="1222" d="M119 674q0 234 78 410.5t231.5 276t364.5 99.5q57 0 116.5 -7t125 -18.5t100.5 -15.5l-29 -200q-53 3 -150.5 22t-167.5 19q-177 0 -277.5 -139.5t-100.5 -375.5q0 -95 14.5 -177t47.5 -153.5t82.5 -122t123 -79.5t166.5 -29q72 0 138.5 10t97.5 20l30 9l35 -184 q-12 -7 -35.5 -16.5t-105 -26t-173.5 -16.5h-10v-46q84 -8 132 -47t48 -108q0 -85 -73 -137t-191 -52q-131 0 -237 41l49 125q79 -20 156 -20q37 0 52 11t15 34q0 27 -33 34.5t-86 -16.5l-26 31l57 162q-266 41 -415.5 225.5t-149.5 456.5z" />
<glyph unicode="&#xc8;" horiz-adv-x="1224" d="M184 1434h928l-10 -203q-80 10 -174 12l-449 6v-430l531 10l-11 -217l-520 17v-443l418 7q56 1 109.5 4t79.5 5l26 3l-10 -205h-905v1225q0 46 -3.5 98.5t-6.5 81.5zM338 1853l197 207l327 -370l-141 -152z" />
<glyph unicode="&#xc9;" horiz-adv-x="1224" d="M184 1434h928l-10 -203q-80 10 -174 12l-449 6v-430l531 10l-11 -217l-520 17v-443l418 7q56 1 109.5 4t79.5 5l26 3l-10 -205h-905v1225q0 46 -3.5 98.5t-6.5 81.5zM541 1686l327 370l199 -205l-383 -315z" />
<glyph unicode="&#xca;" horiz-adv-x="1224" d="M184 1434h928l-10 -203q-80 10 -174 12l-449 6v-430l531 10l-11 -217l-520 17v-443l418 7q56 1 109.5 4t79.5 5l26 3l-10 -205h-905v1225q0 46 -3.5 98.5t-6.5 81.5zM322 1702l309 254h78l303 -242l-121 -149l-221 151l-224 -155z" />
<glyph unicode="&#xcb;" horiz-adv-x="1224" d="M184 1434h928l-10 -203q-80 10 -174 12l-449 6v-430l531 10l-11 -217l-520 17v-443l418 7q56 1 109.5 4t79.5 5l26 3l-10 -205h-905v1225q0 46 -3.5 98.5t-6.5 81.5zM256 1747q0 79 48.5 123.5t123.5 44.5q73 0 114.5 -42.5t41.5 -117.5q0 -83 -46 -128.5t-124 -45.5 q-69 0 -113.5 45.5t-44.5 120.5zM682 1747q0 79 48.5 123.5t123.5 44.5q73 0 114.5 -42.5t41.5 -117.5q0 -83 -46 -128.5t-124 -45.5q-69 0 -113.5 45.5t-44.5 120.5z" />
<glyph unicode="&#xcc;" horiz-adv-x="675" d="M-27 1851l197 207l328 -370l-142 -152zM184 1436l295 10v-1256q0 -42 2.5 -89.5t4.5 -74.5l3 -26h-292v1225q0 46 -3.5 99t-6.5 82z" />
<glyph unicode="&#xcd;" horiz-adv-x="675" d="M172 1686l328 370l198 -205l-383 -315zM184 1436l295 10v-1256q0 -42 2.5 -89.5t4.5 -74.5l3 -26h-292v1225q0 46 -3.5 99t-6.5 82z" />
<glyph unicode="&#xce;" horiz-adv-x="675" d="M14 1698l310 254h77l304 -242l-121 -149l-222 151l-223 -156zM184 1436l295 10v-1256q0 -42 2.5 -89.5t4.5 -74.5l3 -26h-292v1225q0 46 -3.5 99t-6.5 82z" />
<glyph unicode="&#xcf;" horiz-adv-x="675" d="M-41 1747q0 79 48.5 123.5t123.5 44.5q73 0 114.5 -42.5t41.5 -117.5q0 -83 -46 -128.5t-124 -45.5q-69 0 -113.5 45.5t-44.5 120.5zM184 1436l295 10v-1256q0 -42 2.5 -89.5t4.5 -74.5l3 -26h-292v1225q0 46 -3.5 99t-6.5 82zM385 1747q0 79 48.5 123.5t123.5 44.5 q73 0 114.5 -42.5t41.5 -117.5q0 -83 -46 -128.5t-124 -45.5q-69 0 -113.5 45.5t-44.5 120.5z" />
<glyph unicode="&#xd0;" horiz-adv-x="1540" d="M31 625v172h184v428q0 46 -3 98.5t-6 81.5l-3 29h444q377 0 581 -175.5t204 -515.5q0 -152 -41.5 -276.5t-114 -210t-172.5 -144t-215 -85.5t-244 -27h-430v625h-184zM498 188h96q121 0 214.5 26t154.5 71t100 111.5t55.5 143t16.5 169.5q0 257 -130 396.5t-401 139.5 h-106v-448h217v-172h-217v-437z" />
<glyph unicode="&#xd1;" horiz-adv-x="1546" d="M184 1436l207 10l684 -940q20 -29 36.5 -57.5t22.5 -42.5l7 -13l6 2q-10 58 -10 140v690q0 46 -3.5 99t-6.5 82l-3 30l228 10v-1446l-195 -20l-686 940q-14 20 -31 51t-27 52l-10 21h-6q15 -92 15 -145v-709q0 -42 2.5 -89.5t5.5 -74.5l2 -26h-225v1225q0 46 -3.5 99 t-6.5 82zM436 1612q16 98 84 170.5t170 72.5q60 0 107.5 -18.5t81.5 -36.5t61 -18q31 0 52 25.5t26 54.5l164 -41q-19 -116 -86 -180t-150 -64q-57 0 -104 18.5t-83 37t-65 18.5q-34 0 -57.5 -24.5t-32.5 -55.5z" />
<glyph unicode="&#xd2;" horiz-adv-x="1554" d="M117 690q0 171 43 310t126.5 241t214.5 157.5t300 55.5q152 0 275 -59.5t201 -159.5t119.5 -226.5t41.5 -265.5q0 -171 -43 -310t-126.5 -240.5t-214.5 -157t-300 -55.5q-152 0 -275 59.5t-201 159t-119.5 226t-41.5 265.5zM408 741q0 -94 11 -174.5t39 -156.5t70.5 -129 t110.5 -85t156 -32q179 0 265.5 140.5t86.5 387.5q0 94 -11 174.5t-39 156.5t-70.5 129.5t-111 85.5t-155.5 32q-179 0 -265.5 -141t-86.5 -388zM465 1849l197 207l327 -370l-141 -152z" />
<glyph unicode="&#xd3;" horiz-adv-x="1554" d="M117 690q0 171 43 310t126.5 241t214.5 157.5t300 55.5q152 0 275 -59.5t201 -159.5t119.5 -226.5t41.5 -265.5q0 -171 -43 -310t-126.5 -240.5t-214.5 -157t-300 -55.5q-152 0 -275 59.5t-201 159t-119.5 226t-41.5 265.5zM408 741q0 -94 11 -174.5t39 -156.5t70.5 -129 t110.5 -85t156 -32q179 0 265.5 140.5t86.5 387.5q0 94 -11 174.5t-39 156.5t-70.5 129.5t-111 85.5t-155.5 32q-179 0 -265.5 -141t-86.5 -388zM614 1686l328 370l199 -205l-383 -315z" />
<glyph unicode="&#xd4;" horiz-adv-x="1554" d="M117 690q0 171 43 310t126.5 241t214.5 157.5t300 55.5q152 0 275 -59.5t201 -159.5t119.5 -226.5t41.5 -265.5q0 -171 -43 -310t-126.5 -240.5t-214.5 -157t-300 -55.5q-152 0 -275 59.5t-201 159t-119.5 226t-41.5 265.5zM408 741q0 -94 11 -174.5t39 -156.5t70.5 -129 t110.5 -85t156 -32q179 0 265.5 140.5t86.5 387.5q0 94 -11 174.5t-39 156.5t-70.5 129.5t-111 85.5t-155.5 32q-179 0 -265.5 -141t-86.5 -388zM422 1692l309 254h78l303 -242l-121 -150l-221 152l-223 -156z" />
<glyph unicode="&#xd5;" horiz-adv-x="1554" d="M117 690q0 171 43 310t126.5 241t214.5 157.5t300 55.5q152 0 275 -59.5t201 -159.5t119.5 -226.5t41.5 -265.5q0 -171 -43 -310t-126.5 -240.5t-214.5 -157t-300 -55.5q-152 0 -275 59.5t-201 159t-119.5 226t-41.5 265.5zM408 741q0 -94 11 -174.5t39 -156.5t70.5 -129 t110.5 -85t156 -32q179 0 265.5 140.5t86.5 387.5q0 94 -11 174.5t-39 156.5t-70.5 129.5t-111 85.5t-155.5 32q-179 0 -265.5 -141t-86.5 -388zM424 1593q17 98 84.5 171t169.5 73q47 0 87.5 -11.5t63.5 -25.5t49.5 -25.5t49.5 -11.5q31 0 52 25.5t26 54.5l163 -41 q-19 -116 -85.5 -179.5t-149.5 -63.5q-57 0 -104 18.5t-83 36.5t-65 18q-34 0 -57.5 -24.5t-32.5 -55.5z" />
<glyph unicode="&#xd6;" horiz-adv-x="1554" d="M117 690q0 171 43 310t126.5 241t214.5 157.5t300 55.5q152 0 275 -59.5t201 -159.5t119.5 -226.5t41.5 -265.5q0 -171 -43 -310t-126.5 -240.5t-214.5 -157t-300 -55.5q-152 0 -275 59.5t-201 159t-119.5 226t-41.5 265.5zM379 1753q0 79 48.5 123.5t123.5 44.5 q73 0 114.5 -42.5t41.5 -117.5q0 -83 -46 -128.5t-124 -45.5q-69 0 -113.5 45.5t-44.5 120.5zM408 741q0 -94 11 -174.5t39 -156.5t70.5 -129t110.5 -85t156 -32q179 0 265.5 140.5t86.5 387.5q0 94 -11 174.5t-39 156.5t-70.5 129.5t-111 85.5t-155.5 32 q-179 0 -265.5 -141t-86.5 -388zM805 1753q0 79 48.5 123.5t123.5 44.5q73 0 114.5 -42.5t41.5 -117.5q0 -83 -46 -128.5t-124 -45.5q-69 0 -113.5 45.5t-44.5 120.5z" />
<glyph unicode="&#xd7;" horiz-adv-x="1120" d="M123 324l264 266l-260 260l172 172l260 -262l260 262l178 -174l-264 -262l262 -262l-170 -170l-262 260l-264 -262z" />
<glyph unicode="&#xd8;" horiz-adv-x="1554" d="M117 690q0 171 43 310t126.5 241t214.5 157.5t300 55.5q178 0 317 -84l109 154l174 -113l-125 -176q79 -97 120.5 -225.5t41.5 -266.5q0 -171 -43 -310t-126.5 -240.5t-214.5 -157t-300 -55.5q-173 0 -303 73l-136 -196l-178 112l154 211q-85 98 -129.5 231.5 t-44.5 278.5zM408 741q0 -203 51 -338l538 779q-91 88 -237 88q-179 0 -265.5 -141t-86.5 -388zM573 236q88 -72 222 -72q179 0 265.5 140.5t86.5 387.5q0 177 -41 307z" />
<glyph unicode="&#xd9;" horiz-adv-x="1542" d="M170 1436l295 10v-871q0 -212 82 -310.5t250 -98.5q155 0 248.5 101.5t93.5 307.5v650q0 46 -3.5 99t-6.5 82l-3 30l234 10v-871q0 -288 -152 -446t-442 -158q-267 0 -425.5 156.5t-158.5 445.5v652q0 46 -3 99t-6 82zM416 1849l196 207l328 -370l-141 -152z" />
<glyph unicode="&#xda;" horiz-adv-x="1542" d="M170 1436l295 10v-871q0 -212 82 -310.5t250 -98.5q155 0 248.5 101.5t93.5 307.5v650q0 46 -3.5 99t-6.5 82l-3 30l234 10v-871q0 -288 -152 -446t-442 -158q-267 0 -425.5 156.5t-158.5 445.5v652q0 46 -3 99t-6 82zM631 1686l327 370l199 -205l-383 -315z" />
<glyph unicode="&#xdb;" horiz-adv-x="1542" d="M170 1436l295 10v-871q0 -212 82 -310.5t250 -98.5q155 0 248.5 101.5t93.5 307.5v650q0 46 -3.5 99t-6.5 82l-3 30l234 10v-871q0 -288 -152 -446t-442 -158q-267 0 -425.5 156.5t-158.5 445.5v652q0 46 -3 99t-6 82zM440 1690l310 254h77l303 -242l-120 -150l-222 152 l-223 -156z" />
<glyph unicode="&#xdc;" horiz-adv-x="1542" d="M170 1436l295 10v-871q0 -212 82 -310.5t250 -98.5q155 0 248.5 101.5t93.5 307.5v650q0 46 -3.5 99t-6.5 82l-3 30l234 10v-871q0 -288 -152 -446t-442 -158q-267 0 -425.5 156.5t-158.5 445.5v652q0 46 -3 99t-6 82zM401 1753q0 79 48.5 123.5t123.5 44.5 q73 0 114.5 -42.5t41.5 -117.5q0 -83 -46 -128.5t-124 -45.5q-69 0 -113.5 45.5t-44.5 120.5zM827 1753q0 79 48.5 123.5t123.5 44.5q73 0 114.5 -42.5t41.5 -117.5q0 -83 -46 -128.5t-124 -45.5q-69 0 -113.5 45.5t-44.5 120.5z" />
<glyph unicode="&#xdd;" horiz-adv-x="1232" d="M-20 1434l323 10l365 -664l202 410q34 68 59 129t33 88l9 27h239q-73 -164 -155 -324l-293 -530v-390q0 -42 2.5 -89.5t5.5 -74.5l2 -26h-293v582l-381 663q-23 42 -52.5 89t-47.5 74zM510 1686l328 370l198 -205l-383 -315z" />
<glyph unicode="&#xde;" horiz-adv-x="1239" d="M184 1434h295v-213h148q259 0 398.5 -132.5t139.5 -353.5q0 -96 -38 -183.5t-104.5 -154t-164.5 -106t-211 -39.5h-168v-62q0 -42 2.5 -89.5t4.5 -74.5l3 -26h-292v1225q0 46 -3.5 98.5t-6.5 81.5zM479 449h111q144 0 216.5 80t72.5 204q0 293 -281 293h-119v-577z" />
<glyph unicode="&#xdf;" horiz-adv-x="1335" d="M82 840v184h137v96q0 208 130.5 322t375.5 114q56 0 111 -13.5t105.5 -41t88.5 -66t61 -92.5t23 -116q0 -72 -18 -126.5t-44 -89t-52 -65.5t-44 -73.5t-18 -96.5q0 -34 18.5 -67t47.5 -61.5t64.5 -59t71 -66.5t64.5 -77t47.5 -96.5t18.5 -119.5q0 -113 -89 -181t-223 -68 q-71 0 -180 19.5t-151 23.5l16 188q36 -3 115.5 -16t136.5 -13q44 0 71 25.5t27 66.5q0 44 -18.5 78.5t-47.5 58.5t-64 46.5t-70.5 48.5t-64.5 56.5t-47.5 78.5t-18.5 109q0 58 17.5 112t42 94.5t49.5 78t42.5 78.5t17.5 81q0 174 -172 174q-66 0 -118 -46.5t-52 -109.5 v-1022q0 -43 3.5 -90.5t6.5 -73.5l3 -26h-285v840h-135z" />
<glyph unicode="&#xe0;" horiz-adv-x="1118" d="M84 250q0 60 18 110.5t57.5 95.5t109 77.5t165.5 48.5q113 18 238 18v64q0 94 -56.5 143t-156.5 49q-76 0 -149.5 -11t-109.5 -23l-36 -11v178q15 6 44 15t120.5 24.5t187.5 15.5q120 0 206 -28.5t134 -80t69 -115.5t19 -144q-1 -42 -3 -147t-3.5 -192t-1.5 -132 q0 -20 4.5 -28.5t17.5 -8.5q16 0 35.5 10t30.5 20l12 11v-170q-7 -7 -20.5 -16.5t-55 -26t-83.5 -16.5q-130 0 -162 126q-59 -54 -146 -90t-178 -36q-78 0 -138.5 22.5t-96.5 61t-54 85.5t-18 101zM211 1485l197 207l327 -371l-141 -152zM358 279q0 -49 30 -78t87 -29 q45 0 98 22t91 52q0 47 4 219q-98 -4 -174 -27q-136 -40 -136 -159z" />
<glyph unicode="&#xe1;" horiz-adv-x="1118" d="M84 250q0 60 18 110.5t57.5 95.5t109 77.5t165.5 48.5q113 18 238 18v64q0 94 -56.5 143t-156.5 49q-76 0 -149.5 -11t-109.5 -23l-36 -11v178q15 6 44 15t120.5 24.5t187.5 15.5q120 0 206 -28.5t134 -80t69 -115.5t19 -144q-1 -42 -3 -147t-3.5 -192t-1.5 -132 q0 -20 4.5 -28.5t17.5 -8.5q16 0 35.5 10t30.5 20l12 11v-170q-7 -7 -20.5 -16.5t-55 -26t-83.5 -16.5q-130 0 -162 126q-59 -54 -146 -90t-178 -36q-78 0 -138.5 22.5t-96.5 61t-54 85.5t-18 101zM358 279q0 -49 30 -78t87 -29q45 0 98 22t91 52q0 47 4 219 q-98 -4 -174 -27q-136 -40 -136 -159zM412 1317l327 371l199 -205l-383 -316z" />
<glyph unicode="&#xe2;" horiz-adv-x="1118" d="M84 250q0 60 18 110.5t57.5 95.5t109 77.5t165.5 48.5q113 18 238 18v64q0 94 -56.5 143t-156.5 49q-76 0 -149.5 -11t-109.5 -23l-36 -11v178q15 6 44 15t120.5 24.5t187.5 15.5q120 0 206 -28.5t134 -80t69 -115.5t19 -144q-1 -42 -3 -147t-3.5 -192t-1.5 -132 q0 -20 4.5 -28.5t17.5 -8.5q16 0 35.5 10t30.5 20l12 11v-170q-7 -7 -20.5 -16.5t-55 -26t-83.5 -16.5q-130 0 -162 126q-59 -54 -146 -90t-178 -36q-78 0 -138.5 22.5t-96.5 61t-54 85.5t-18 101zM197 1333l309 254h78l303 -241l-121 -150l-221 152l-223 -156zM358 279 q0 -49 30 -78t87 -29q45 0 98 22t91 52q0 47 4 219q-98 -4 -174 -27q-136 -40 -136 -159z" />
<glyph unicode="&#xe3;" horiz-adv-x="1118" d="M84 250q0 60 18 110.5t57.5 95.5t109 77.5t165.5 48.5q113 18 238 18v64q0 94 -56.5 143t-156.5 49q-76 0 -149.5 -11t-109.5 -23l-36 -11v178q15 6 44 15t120.5 24.5t187.5 15.5q120 0 206 -28.5t134 -80t69 -115.5t19 -144q-1 -42 -3 -147t-3.5 -192t-1.5 -132 q0 -20 4.5 -28.5t17.5 -8.5q16 0 35.5 10t30.5 20l12 11v-170q-7 -7 -20.5 -16.5t-55 -26t-83.5 -16.5q-130 0 -162 126q-59 -54 -146 -90t-178 -36q-78 0 -138.5 22.5t-96.5 61t-54 85.5t-18 101zM190 1251q17 98 84.5 171t169.5 73q47 0 87.5 -11.5t63.5 -25.5t49.5 -25.5 t49.5 -11.5q31 0 52 25.5t26 54.5l164 -41q-19 -116 -86 -179.5t-150 -63.5q-57 0 -104 18.5t-82.5 36.5t-64.5 18q-34 0 -58 -24.5t-33 -55.5zM358 279q0 -49 30 -78t87 -29q45 0 98 22t91 52q0 47 4 219q-98 -4 -174 -27q-136 -40 -136 -159z" />
<glyph unicode="&#xe4;" horiz-adv-x="1118" d="M84 250q0 60 18 110.5t57.5 95.5t109 77.5t165.5 48.5q113 18 238 18v64q0 94 -56.5 143t-156.5 49q-76 0 -149.5 -11t-109.5 -23l-36 -11v178q15 6 44 15t120.5 24.5t187.5 15.5q120 0 206 -28.5t134 -80t69 -115.5t19 -144q-1 -42 -3 -147t-3.5 -192t-1.5 -132 q0 -20 4.5 -28.5t17.5 -8.5q16 0 35.5 10t30.5 20l12 11v-170q-7 -7 -20.5 -16.5t-55 -26t-83.5 -16.5q-130 0 -162 126q-59 -54 -146 -90t-178 -36q-78 0 -138.5 22.5t-96.5 61t-54 85.5t-18 101zM154 1389q0 79 48.5 123t123.5 44q73 0 114 -42t41 -117q0 -83 -46 -128.5 t-124 -45.5q-69 0 -113 45.5t-44 120.5zM358 279q0 -49 30 -78t87 -29q45 0 98 22t91 52q0 47 4 219q-98 -4 -174 -27q-136 -40 -136 -159zM580 1389q0 79 48.5 123t123.5 44q73 0 114 -42t41 -117q0 -83 -46 -128.5t-124 -45.5q-69 0 -113 45.5t-44 120.5z" />
<glyph unicode="&#xe5;" horiz-adv-x="1118" d="M84 250q0 60 18 110.5t57.5 95.5t109 77.5t165.5 48.5q113 18 238 18v64q0 94 -56.5 143t-156.5 49q-76 0 -149.5 -11t-109.5 -23l-36 -11v178q15 6 44 15t120.5 24.5t187.5 15.5q120 0 206 -28.5t134 -80t69 -115.5t19 -144q-1 -42 -3 -147t-3.5 -192t-1.5 -132 q0 -20 4.5 -28.5t17.5 -8.5q16 0 35.5 10t30.5 20l12 11v-170q-7 -7 -20.5 -16.5t-55 -26t-83.5 -16.5q-130 0 -162 126q-59 -54 -146 -90t-178 -36q-78 0 -138.5 22.5t-96.5 61t-54 85.5t-18 101zM291 1421q0 103 73 165.5t183 62.5t182 -62t72 -166q0 -103 -72 -165 t-182 -62t-183 62t-73 165zM358 279q0 -49 30 -78t87 -29q45 0 98 22t91 52q0 47 4 219q-98 -4 -174 -27q-136 -40 -136 -159zM496 1421q0 -32 14.5 -55t36.5 -23q21 0 33 22t12 56q0 33 -12 53.5t-33 20.5q-22 0 -36.5 -21t-14.5 -53z" />
<glyph unicode="&#xe6;" horiz-adv-x="1712" d="M84 270q0 123 95.5 207t254.5 109q113 18 238 18v43q0 107 -51 150t-154 43q-79 0 -155 -14t-112 -28l-36 -14v195q15 7 45 18t131 29t213 18q207 0 291 -116q131 116 334 116q124 0 215.5 -44.5t142.5 -122.5t69.5 -177.5t4.5 -214.5h-670q6 -137 95 -219t229 -82 q76 0 152 14t114 28l39 14v-191q-5 -3 -15 -7.5t-44 -16.5t-73.5 -21t-103 -16.5t-131.5 -7.5q-255 0 -405 147q-61 -69 -157.5 -108t-203.5 -39q-177 0 -264.5 80.5t-87.5 209.5zM358 295q0 -30 19 -56.5t54 -41t77.5 -16t95.5 20t103 64.5q-37 80 -43 193 q-306 -4 -306 -164zM954 657l379 9q-3 105 -43.5 151.5t-120.5 46.5q-174 0 -215 -207z" />
<glyph unicode="&#xe7;" horiz-adv-x="993" d="M102 479q0 253 137 409t367 156q61 0 153.5 -18.5t137.5 -21.5l-20 -209q-48 4 -140.5 25.5t-140.5 21.5q-96 0 -156.5 -80t-60.5 -234q0 -158 77.5 -251t219.5 -93q55 0 110.5 14t83.5 28l29 14v-193q-10 -6 -30 -16t-85 -27.5t-135 -21.5v-72q84 -8 132 -47.5 t48 -108.5q0 -85 -72.5 -136.5t-191.5 -51.5q-131 0 -237 41l49 125q82 -21 155 -21q68 0 68 45q0 27 -33 35t-86 -16l-26 30l63 181q-195 26 -305.5 160t-110.5 333z" />
<glyph unicode="&#xe8;" horiz-adv-x="1146" d="M98 496q0 254 143.5 401t370.5 147q124 0 215.5 -44.5t142.5 -122.5t69.5 -177.5t4.5 -214.5h-669q6 -137 94.5 -219t228.5 -82q76 0 152.5 14t115.5 28l38 14v-191q-5 -3 -14.5 -7.5t-43 -16.5t-71 -21t-97 -16.5t-121.5 -7.5q-257 0 -408 137t-151 379zM326 1485 l196 207l328 -371l-141 -152zM389 657l379 9q-3 105 -43.5 151.5t-120.5 46.5q-87 0 -145.5 -57.5t-69.5 -149.5z" />
<glyph unicode="&#xe9;" horiz-adv-x="1146" d="M98 496q0 254 143.5 401t370.5 147q124 0 215.5 -44.5t142.5 -122.5t69.5 -177.5t4.5 -214.5h-669q6 -137 94.5 -219t228.5 -82q76 0 152.5 14t115.5 28l38 14v-191q-5 -3 -14.5 -7.5t-43 -16.5t-71 -21t-97 -16.5t-121.5 -7.5q-257 0 -408 137t-151 379zM389 657l379 9 q-3 105 -43.5 151.5t-120.5 46.5q-87 0 -145.5 -57.5t-69.5 -149.5zM465 1319l328 371l198 -205l-383 -316z" />
<glyph unicode="&#xea;" horiz-adv-x="1146" d="M98 496q0 254 143.5 401t370.5 147q124 0 215.5 -44.5t142.5 -122.5t69.5 -177.5t4.5 -214.5h-669q6 -137 94.5 -219t228.5 -82q76 0 152.5 14t115.5 28l38 14v-191q-5 -3 -14.5 -7.5t-43 -16.5t-71 -21t-97 -16.5t-121.5 -7.5q-257 0 -408 137t-151 379zM270 1333 l310 254h77l304 -241l-121 -150l-222 152l-223 -156zM389 657l379 9q-3 105 -43.5 151.5t-120.5 46.5q-87 0 -145.5 -57.5t-69.5 -149.5z" />
<glyph unicode="&#xeb;" horiz-adv-x="1146" d="M98 496q0 254 143.5 401t370.5 147q124 0 215.5 -44.5t142.5 -122.5t69.5 -177.5t4.5 -214.5h-669q6 -137 94.5 -219t228.5 -82q76 0 152.5 14t115.5 28l38 14v-191q-5 -3 -14.5 -7.5t-43 -16.5t-71 -21t-97 -16.5t-121.5 -7.5q-257 0 -408 137t-151 379zM203 1386 q0 79 48.5 123.5t123.5 44.5q73 0 114 -42t41 -117q0 -83 -46 -128.5t-124 -45.5q-69 0 -113 45t-44 120zM389 657l379 9q-3 105 -43.5 151.5t-120.5 46.5q-87 0 -145.5 -57.5t-69.5 -149.5zM629 1386q0 79 48.5 123.5t123.5 44.5q73 0 114 -42t41 -117q0 -83 -46 -128.5 t-124 -45.5q-69 0 -113 45t-44 120z" />
<glyph unicode="&#xec;" d="M-20 1485l196 207l328 -371l-142 -152zM150 1024l284 10v-844q0 -42 2.5 -89.5t5.5 -74.5l2 -26h-282v813q0 46 -3 99t-6 82z" />
<glyph unicode="&#xed;" d="M150 1024l284 10v-844q0 -42 2.5 -89.5t5.5 -74.5l2 -26h-282v813q0 46 -3 99t-6 82zM154 1321l327 371l199 -205l-383 -316z" />
<glyph unicode="&#xee;" d="M-45 1331l309 254h78l303 -242l-121 -149l-221 152l-223 -156zM150 1024l284 10v-844q0 -42 2.5 -89.5t5.5 -74.5l2 -26h-282v813q0 46 -3 99t-6 82z" />
<glyph unicode="&#xef;" d="M-84 1382q0 79 48.5 123.5t123.5 44.5q74 0 115 -42t41 -117q0 -83 -46 -128.5t-124 -45.5q-69 0 -113.5 45t-44.5 120zM150 1024l284 10v-844q0 -42 2.5 -89.5t5.5 -74.5l2 -26h-282v813q0 46 -3 99t-6 82zM342 1382q0 79 48.5 123.5t123.5 44.5q74 0 115 -42t41 -117 q0 -83 -46 -128.5t-124 -45.5q-69 0 -113.5 45t-44.5 120z" />
<glyph unicode="&#xf0;" horiz-adv-x="1191" d="M104 449q0 222 121.5 360.5t335.5 138.5q93 0 187 -37q-57 189 -205 306l-117 -183l-156 99l115 176q-88 40 -223 73l57 207q172 -39 289 -88l129 201l154 -103l-119 -184q399 -254 399 -786q0 -134 -32 -251t-93 -206t-157.5 -140.5t-217.5 -51.5q-110 0 -200 38.5 t-147.5 104t-88.5 149.5t-31 177zM385 467q0 -56 10 -106.5t31.5 -94.5t61.5 -70t94 -26q56 0 96.5 37t63.5 102.5t33.5 143t10.5 168.5q0 13 -1 36t-1 35q-83 60 -178 60q-103 0 -162 -78.5t-59 -206.5z" />
<glyph unicode="&#xf1;" horiz-adv-x="1239" d="M150 1024l270 10l6 -114q78 63 155 93.5t195 30.5q152 0 231.5 -99t79.5 -281v-494q0 -33 2.5 -75.5t5.5 -68.5l3 -26h-283v633q0 102 -37.5 154.5t-122.5 52.5q-57 0 -108 -17.5t-117 -52.5q4 -56 4 -154v-446q0 -33 2.5 -75.5t5.5 -68.5l2 -26h-282v813q0 46 -3 99 t-6 82zM285 1249q17 98 84.5 171t169.5 73q60 0 107 -18.5t81 -37t61 -18.5q31 0 52 25.5t26 54.5l164 -41q-19 -116 -85.5 -180t-149.5 -64q-57 0 -104 18.5t-83 37t-65 18.5q-34 0 -57.5 -24.5t-32.5 -55.5z" />
<glyph unicode="&#xf2;" horiz-adv-x="1196" d="M102 477q0 264 140 415.5t383 151.5q219 0 344 -134.5t125 -362.5q0 -263 -140 -415t-383 -152q-219 0 -344 135t-125 362zM270 1487l197 207l328 -371l-142 -152zM379 528q0 -169 55 -266.5t168 -97.5q105 0 160 83t55 238q0 185 -50 281t-173 96q-106 0 -160.5 -87.5 t-54.5 -246.5z" />
<glyph unicode="&#xf3;" horiz-adv-x="1196" d="M102 477q0 264 140 415.5t383 151.5q219 0 344 -134.5t125 -362.5q0 -263 -140 -415t-383 -152q-219 0 -344 135t-125 362zM379 528q0 -169 55 -266.5t168 -97.5q105 0 160 83t55 238q0 185 -50 281t-173 96q-106 0 -160.5 -87.5t-54.5 -246.5zM444 1321l328 371 l199 -205l-383 -316z" />
<glyph unicode="&#xf4;" horiz-adv-x="1196" d="M102 477q0 264 140 415.5t383 151.5q219 0 344 -134.5t125 -362.5q0 -263 -140 -415t-383 -152q-219 0 -344 135t-125 362zM240 1335l309 254h78l303 -241l-121 -150l-221 152l-223 -156zM379 528q0 -169 55 -266.5t168 -97.5q105 0 160 83t55 238q0 185 -50 281t-173 96 q-106 0 -160.5 -87.5t-54.5 -246.5z" />
<glyph unicode="&#xf5;" horiz-adv-x="1196" d="M102 477q0 264 140 415.5t383 151.5q219 0 344 -134.5t125 -362.5q0 -263 -140 -415t-383 -152q-219 0 -344 135t-125 362zM242 1264q16 98 84 170.5t170 72.5q60 0 107 -18.5t81 -36.5t61 -18q31 0 52 25t26 54l164 -40q-19 -116 -85.5 -180t-149.5 -64q-57 0 -104 18.5 t-83 37t-65 18.5q-34 0 -57.5 -24.5t-32.5 -55.5zM379 528q0 -169 55 -266.5t168 -97.5q105 0 160 83t55 238q0 185 -50 281t-173 96q-106 0 -160.5 -87.5t-54.5 -246.5z" />
<glyph unicode="&#xf6;" horiz-adv-x="1196" d="M102 477q0 264 140 415.5t383 151.5q219 0 344 -134.5t125 -362.5q0 -263 -140 -415t-383 -152q-219 0 -344 135t-125 362zM219 1389q0 79 48.5 123t123.5 44q74 0 115 -42t41 -117q0 -83 -46 -128.5t-124 -45.5q-69 0 -113.5 45.5t-44.5 120.5zM379 528 q0 -169 55 -266.5t168 -97.5q105 0 160 83t55 238q0 185 -50 281t-173 96q-106 0 -160.5 -87.5t-54.5 -246.5zM645 1389q0 79 48.5 123t123.5 44q74 0 115 -42t41 -117q0 -83 -46 -128.5t-124 -45.5q-69 0 -113.5 45.5t-44.5 120.5z" />
<glyph unicode="&#xf7;" horiz-adv-x="1079" d="M109 467v233h862v-233h-862zM381 227q0 82 47.5 127t124.5 45q65 0 111.5 -45t46.5 -114q0 -78 -50.5 -122t-123.5 -44q-71 0 -113.5 41t-42.5 112zM381 936q0 82 47.5 127t124.5 45q65 0 111.5 -45.5t46.5 -114.5q0 -78 -50.5 -122t-123.5 -44q-71 0 -113.5 41.5 t-42.5 112.5z" />
<glyph unicode="&#xf8;" horiz-adv-x="1193" d="M102 467q0 271 139.5 424t383.5 153q124 0 217 -43l88 132l157 -103l-98 -143q105 -130 105 -328q0 -271 -139.5 -425t-383.5 -154q-98 0 -184 28l-82 -119l-158 101l82 121q-127 133 -127 356zM379 557q0 -137 18 -215l328 479q-53 41 -143 41q-62 0 -104 -26 t-62.5 -72.5t-28.5 -95.5t-8 -111zM502 186q49 -22 112 -22q61 0 103.5 28.5t63 77t28.5 96.5t8 103q0 103 -8 168z" />
<glyph unicode="&#xf9;" horiz-adv-x="1241" d="M143 1024h283v-633q0 -102 37.5 -154.5t122.5 -52.5q57 0 108 17.5t117 52.5q-4 56 -4 154v446q0 33 -2.5 75.5t-4.5 68.5l-3 26h282v-813q0 -46 3.5 -99t6.5 -82l3 -30l-271 -10l-6 114q-78 -63 -155 -93.5t-195 -30.5q-152 0 -231.5 99t-79.5 281v494q0 33 -3 75.5 t-5 68.5zM287 1485l196 207l328 -371l-141 -152z" />
<glyph unicode="&#xfa;" horiz-adv-x="1241" d="M143 1024h283v-633q0 -102 37.5 -154.5t122.5 -52.5q57 0 108 17.5t117 52.5q-4 56 -4 154v446q0 33 -2.5 75.5t-4.5 68.5l-3 26h282v-813q0 -46 3.5 -99t6.5 -82l3 -30l-271 -10l-6 114q-78 -63 -155 -93.5t-195 -30.5q-152 0 -231.5 99t-79.5 281v494q0 33 -3 75.5 t-5 68.5zM481 1319l328 371l199 -205l-383 -316z" />
<glyph unicode="&#xfb;" horiz-adv-x="1241" d="M143 1024h283v-633q0 -102 37.5 -154.5t122.5 -52.5q57 0 108 17.5t117 52.5q-4 56 -4 154v446q0 33 -2.5 75.5t-4.5 68.5l-3 26h282v-813q0 -46 3.5 -99t6.5 -82l3 -30l-271 -10l-6 114q-78 -63 -155 -93.5t-195 -30.5q-152 0 -231.5 99t-79.5 281v494q0 33 -3 75.5 t-5 68.5zM297 1329l309 254h78l303 -242l-121 -149l-221 151l-223 -155z" />
<glyph unicode="&#xfc;" horiz-adv-x="1241" d="M143 1024h283v-633q0 -102 37.5 -154.5t122.5 -52.5q57 0 108 17.5t117 52.5q-4 56 -4 154v446q0 33 -2.5 75.5t-4.5 68.5l-3 26h282v-813q0 -46 3.5 -99t6.5 -82l3 -30l-271 -10l-6 114q-78 -63 -155 -93.5t-195 -30.5q-152 0 -231.5 99t-79.5 281v494q0 33 -3 75.5 t-5 68.5zM229 1376q0 79 48.5 123.5t123.5 44.5q73 0 114.5 -42.5t41.5 -117.5q0 -83 -46 -128.5t-124 -45.5q-69 0 -113.5 45.5t-44.5 120.5zM655 1376q0 79 48.5 123.5t123.5 44.5q73 0 114.5 -42.5t41.5 -117.5q0 -83 -46 -128.5t-124 -45.5q-69 0 -113.5 45.5 t-44.5 120.5z" />
<glyph unicode="&#xfd;" horiz-adv-x="1073" d="M25 1024l301 10l196 -600q17 -54 30.5 -104.5t17.5 -74.5l5 -24h9q18 96 53 207l94 293q4 12 16.5 50.5t16 50.5t12.5 42.5t13 49t8.5 46t7.5 54.5h221q-14 -173 -115 -414l-258 -628q-46 -112 -89 -237.5t-63 -194.5l-20 -70l-264 12q59 164 178 379l33 59l-317 883 q-20 56 -41.5 108.5t-33.5 77.5zM422 1319l328 371l198 -205l-383 -316z" />
<glyph unicode="&#xfe;" horiz-adv-x="1257" d="M150 1534l280 10l-4 -608q108 108 301 108q131 0 230.5 -67.5t148.5 -174.5t49 -235q0 -272 -137.5 -429.5t-355.5 -157.5q-131 0 -228 59v-381q0 -33 2.5 -75.5t5.5 -68.5l2 -26h-282v1835q0 46 -3 99t-6 82zM430 772q4 -32 4 -156v-372l8.5 -8.5t23 -19.5t35.5 -24.5 t45.5 -19t53.5 -8.5q91 0 154 47t91.5 122.5t28.5 172.5q0 174 -62.5 254t-162.5 80q-64 0 -112.5 -16.5t-106.5 -51.5z" />
<glyph unicode="&#xff;" horiz-adv-x="1073" d="M25 1024l301 10l196 -600q17 -54 30.5 -104.5t17.5 -74.5l5 -24h9q18 96 53 207l94 293q4 12 16.5 50.5t16 50.5t12.5 42.5t13 49t8.5 46t7.5 54.5h221q-14 -173 -115 -414l-258 -628q-46 -112 -89 -237.5t-63 -194.5l-20 -70l-264 12q59 164 178 379l33 59l-317 883 q-20 56 -41.5 108.5t-33.5 77.5zM190 1386q0 79 48.5 123.5t123.5 44.5q74 0 115 -42t41 -117q0 -83 -46 -128.5t-124 -45.5q-69 0 -113.5 45t-44.5 120zM616 1386q0 79 48.5 123.5t123.5 44.5q74 0 115 -42t41 -117q0 -83 -46 -128.5t-124 -45.5q-69 0 -113.5 45t-44.5 120 z" />
<glyph unicode="&#x131;" d="M150 1024l284 10v-844q0 -42 2.5 -89.5t5.5 -74.5l2 -26h-282v813q0 46 -3 99t-6 82z" />
<glyph unicode="&#x152;" horiz-adv-x="2056" d="M119 690q0 172 40 310t121 240.5t211.5 158t303.5 55.5q99 0 254 -20h895l-11 -203l-622 18v-430l530 10l-10 -217l-520 17v-443l633 19l-11 -205h-876q-8 -2 -46.5 -6.5t-102.5 -9t-113 -4.5q-138 0 -251.5 39t-191 105.5t-131 158t-78 193.5t-24.5 214zM410 741 q0 -259 116 -416t305 -157q109 0 197 18v1051q-102 33 -192 33q-215 0 -320.5 -141t-105.5 -388z" />
<glyph unicode="&#x153;" horiz-adv-x="1927" d="M102 492q0 253 137 402.5t365 149.5q141 0 244 -59.5t156 -177.5q109 237 389 237q124 0 215.5 -44.5t142.5 -122.5t69.5 -177.5t4.5 -214.5h-670q6 -137 95 -219t229 -82q76 0 152 14t115 28l38 14v-191q-5 -3 -15 -7.5t-44 -16.5t-73.5 -21t-103 -16.5t-131.5 -7.5 q-166 0 -276.5 68.5t-157.5 193.5q-94 -262 -432 -262q-199 0 -324 140t-125 372zM379 508q0 -72 12 -131t38.5 -108.5t73.5 -77t111 -27.5q101 0 163.5 89t62.5 206q-2 22 -2 45l2 37q0 136 -60 228.5t-170 92.5t-170.5 -91.5t-60.5 -262.5zM1169 657l379 9 q-3 105 -43.5 151.5t-120.5 46.5q-174 0 -215 -207z" />
<glyph unicode="&#x178;" horiz-adv-x="1232" d="M-20 1434l323 10l365 -664l202 410q34 68 59 129t33 88l9 27h239q-73 -164 -155 -324l-293 -530v-390q0 -42 2.5 -89.5t5.5 -74.5l2 -26h-293v582l-381 663q-23 42 -52.5 89t-47.5 74zM266 1743q0 79 48.5 123.5t123.5 44.5q73 0 114.5 -42.5t41.5 -117.5 q0 -83 -46 -128.5t-124 -45.5q-69 0 -113.5 45.5t-44.5 120.5zM692 1743q0 79 48.5 123.5t123.5 44.5q73 0 114.5 -42.5t41.5 -117.5q0 -83 -46 -128.5t-124 -45.5q-69 0 -113.5 45.5t-44.5 120.5z" />
<glyph unicode="&#x192;" horiz-adv-x="827" d="M-225 -469l16 209q56 -5 145 -26t136 -21q77 0 105 50.5t28 174.5v924l-115 2v180h117v96q0 436 411 436q62 0 153.5 -18.5t137.5 -21.5l-24 -209q-56 5 -145 26t-136 21q-61 0 -94 -36.5t-33 -107.5v-186h309l-10 -190l-299 4v-912q0 -218 -93.5 -327t-317.5 -109 q-62 0 -153.5 19t-137.5 22z" />
<glyph unicode="&#x2c6;" horiz-adv-x="786" d="M61 1219l310 254h78l303 -242l-121 -150l-221 152l-224 -156z" />
<glyph unicode="&#x2c7;" horiz-adv-x="786" d="M59 1427l121 150l221 -152l224 156l125 -141l-310 -254h-78z" />
<glyph unicode="&#x2d8;" horiz-adv-x="815" d="M90 1329l184 74l3 -7l8 -16t13 -21.5t19.5 -23.5t25.5 -21.5t33.5 -15.5t41.5 -6q31 0 56.5 11t41 27.5t25.5 32.5t15 28l5 12l189 -76q-34 -125 -127.5 -194.5t-204.5 -69.5q-118 0 -205.5 69t-122.5 197z" />
<glyph unicode="&#x2d9;" horiz-adv-x="380" d="M68 1202q0 65 50 113.5t115 48.5q67 0 113.5 -47.5t46.5 -114.5q0 -68 -49 -115t-115 -47q-65 0 -113 47t-48 115z" />
<glyph unicode="&#x2da;" horiz-adv-x="630" d="M59 1343q0 103 73 165.5t183 62.5t182 -62t72 -166q0 -103 -72 -165t-182 -62t-183 62t-73 165zM264 1343q0 -32 14.5 -54.5t36.5 -22.5q21 0 33 22t12 55t-12 53.5t-33 20.5q-22 0 -36.5 -21t-14.5 -53z" />
<glyph unicode="&#x2db;" horiz-adv-x="436" d="M49 -223q0 41 19 78.5t50 65t63 47t65 32.5h170q-72 -32 -121 -83.5t-49 -100.5q0 -39 29 -58.5t77 -19.5q28 0 60 5.5t50 10.5l19 6v-133q-74 -35 -168 -35q-127 0 -195.5 50t-68.5 135z" />
<glyph unicode="&#x2dc;" horiz-adv-x="868" d="M78 1133q16 98 84 170.5t170 72.5q47 0 87.5 -11.5t63.5 -25t49.5 -25t49.5 -11.5q31 0 51.5 25t25.5 54l164 -41q-19 -116 -85.5 -179.5t-149.5 -63.5q-45 0 -85 11.5t-63.5 25t-51.5 25t-52 11.5q-34 0 -57.5 -24t-32.5 -55z" />
<glyph unicode="&#x2dd;" horiz-adv-x="1038" d="M90 1143l328 370l190 -198l-383 -316zM477 1143l328 370l190 -198l-383 -316z" />
<glyph unicode="&#x401;" horiz-adv-x="1224" d="M184 1434h928l-10 -203q-80 10 -174 12l-449 6v-430l531 10l-11 -217l-520 17v-443l418 7q56 1 109.5 4t79.5 5l26 3l-10 -205h-905v1225q0 46 -3.5 98.5t-6.5 81.5zM279 1739q0 79 48.5 123.5t123.5 44.5q73 0 114 -42.5t41 -117.5q0 -83 -46 -128.5t-124 -45.5 q-69 0 -113 45.5t-44 120.5zM705 1739q0 79 48.5 123.5t123.5 44.5q73 0 114 -42.5t41 -117.5q0 -83 -46 -128.5t-124 -45.5q-69 0 -113 45.5t-44 120.5z" />
<glyph unicode="&#x402;" horiz-adv-x="1505" d="M41 1237l18 197h1098l-8 -195q-18 2 -45.5 4t-82.5 5.5t-73 2.5l-207 -4v-370q10 5 29.5 12.5t82.5 20t130 12.5q113 0 200 -32.5t139.5 -90.5t78.5 -132t26 -163q0 -135 -31 -240.5t-115.5 -205.5t-225.5 -175l-123 195q106 59 165.5 166t59.5 241q0 113 -56 172.5 t-181 59.5q-49 0 -94 -5.5t-65 -10.5l-20 -5v-506q0 -42 2.5 -89.5t5.5 -74.5l3 -26h-293v1247l-223 4q-48 1 -97 -2.5t-73 -7.5z" />
<glyph unicode="&#x403;" horiz-adv-x="1091" d="M184 1434h867l-11 -224q-84 17 -219 17h-342v-1037q0 -42 2.5 -89.5t4.5 -74.5l3 -26h-292v1225q0 46 -3.5 98.5t-6.5 81.5zM453 1686l327 370l199 -205l-383 -315z" />
<glyph unicode="&#x404;" horiz-adv-x="1226" d="M115 674q0 234 77.5 410.5t231 276t364.5 99.5q57 0 116.5 -7t125 -18.5t100.5 -15.5l-28 -196q-53 3 -150.5 22t-167.5 19q-87 0 -159 -35.5t-119 -97t-74 -141t-31 -169.5l574 8v-211l-565 9q3 -65 20 -127.5t49.5 -121t77 -102t107.5 -70t137 -26.5q96 0 176 11 t111 23l32 11v-194q-11 -6 -32.5 -14.5t-102.5 -22.5t-178 -14q-205 0 -363 88.5t-243.5 246t-85.5 359.5z" />
<glyph unicode="&#x405;" horiz-adv-x="1124" d="M125 1047q0 189 127 301t334 112q101 0 231 -19t162 -22l-33 -205q-60 4 -163 22.5t-156 18.5q-221 0 -221 -182q0 -76 49.5 -131.5t179.5 -105.5q210 -81 297.5 -180t87.5 -267q0 -193 -143.5 -301t-403.5 -108q-101 0 -187.5 12.5t-122.5 25.5l-36 13v198q17 -5 47 -13 t120.5 -21t178.5 -13q137 0 201.5 55.5t64.5 131.5q0 43 -7 71.5t-30 62t-73.5 63t-130.5 57.5q-188 67 -280.5 166.5t-92.5 257.5z" />
<glyph unicode="&#x406;" horiz-adv-x="675" d="M184 1436l295 10v-1256q0 -42 2.5 -89.5t4.5 -74.5l3 -26h-292v1225q0 46 -3.5 99t-6.5 82z" />
<glyph unicode="&#x407;" horiz-adv-x="675" d="M-31 1706q0 79 48.5 123.5t123.5 44.5q73 0 114.5 -42.5t41.5 -117.5q0 -83 -46 -128.5t-124 -45.5q-69 0 -113.5 45.5t-44.5 120.5zM184 1436l295 10v-1256q0 -42 2.5 -89.5t4.5 -74.5l3 -26h-292v1225q0 46 -3.5 99t-6.5 82zM375 1706q0 79 48.5 123.5t123.5 44.5 q73 0 114 -42.5t41 -117.5q0 -83 -46 -128.5t-124 -45.5q-69 0 -113 45.5t-44 120.5z" />
<glyph unicode="&#x408;" horiz-adv-x="673" d="M-25 -303q31 40 71 90t54 68t32.5 44t27 44t16.5 43q21 62 21 198v1041q0 46 -3.5 99t-6.5 82l-3 30l295 10v-1260q0 -141 -37 -233q-27 -72 -82.5 -138.5t-200.5 -214.5l-28 -28z" />
<glyph unicode="&#x409;" horiz-adv-x="2023" d="M23 215q190 73 247 288.5t91 748.5q3 39 4 61t3.5 56.5t4.5 64.5h878v-506h187q96 0 189 -30.5t166 -85t118 -136.5t45 -178q0 -231 -141 -364.5t-398 -133.5h-448v1241h-353q-28 -421 -49 -569q-44 -319 -152 -480q-100 -149 -280 -217zM1251 195h64q80 0 142.5 17 t101.5 45t64.5 66t35.5 77t10 81q0 110 -75.5 181t-229.5 71h-113v-538z" />
<glyph unicode="&#x40a;" horiz-adv-x="2217" d="M184 1436l295 10v-612h684v391q0 46 -3 98t-6 81l-3 28l295 10v-514h186q96 0 189 -30.5t166 -85t118 -136.5t45 -178q0 -231 -140.5 -364.5t-397.5 -133.5h-449v641h-684v-451q0 -42 2.5 -89.5t4.5 -74.5l3 -26h-292v1225q0 46 -3.5 99t-6.5 82zM1446 195h63 q99 0 171 25.5t110.5 68.5t56 90.5t17.5 101.5q0 110 -75.5 181t-229.5 71h-113v-538z" />
<glyph unicode="&#x40b;" horiz-adv-x="1570" d="M43 1237l10 197h1106l-8 -195l-172 8h-236v-387q4 3 12.5 7t39 14.5t65.5 19t92 15t119 6.5q196 0 293.5 -107t97.5 -332v-483h-282v442q0 76 -11 125t-40 84.5t-81 50.5t-133 15q-44 0 -87 -3.5t-64 -7.5l-21 -4v-512q0 -42 2.5 -89.5t5.5 -74.5l3 -26h-293v1247l-211 4 q-41 1 -92.5 -2.5t-83.5 -7.5z" />
<glyph unicode="&#x40c;" horiz-adv-x="1335" d="M184 1436l295 10v-617h119q43 58 81.5 112.5t65 93.5t56.5 88t43.5 71t39 69.5t30.5 57t30 60t27 53.5h272q-182 -325 -446 -658l426 -633q21 -32 47 -67.5t42 -55.5l15 -20l-313 -10l-441 649h-94v-449q0 -42 2.5 -89.5t4.5 -74.5l3 -26h-292v1225q0 46 -3.5 99t-6.5 82 zM569 1686l328 370l199 -205l-383 -315z" />
<glyph unicode="&#x40e;" horiz-adv-x="1245" d="M6 1434l301 6l299 -633q24 -52 45.5 -112t30.5 -94l10 -34h6q29 119 80 244l123 297q35 88 60.5 169.5t34.5 118.5l8 38h219q-43 -175 -168 -461l-252 -572q-62 -141 -101 -241t-47 -130l-8 -30h-260q45 114 168 313l-440 910q-23 47 -50 100t-43 82zM260 1735l176 180 q21 -19 55 -55t55 -56.5t54.5 -37.5t69.5 -17q32 0 60.5 8t57 28t45.5 34t49.5 45.5t45.5 42.5l119 -185q-78 -73 -168 -118t-209 -45q-207 0 -410 176z" />
<glyph unicode="&#x40f;" horiz-adv-x="1560" d="M184 1436l295 10v-1253h602v1032q0 46 -3 99t-6 82l-3 30l295 10v-1256q0 -42 2.5 -89.5t5.5 -74.5l2 -26h-471v-246q0 -39 2.5 -85t4.5 -73l3 -26l-245 -12l-17 442h-454v1225q0 46 -3.5 99t-6.5 82z" />
<glyph unicode="&#x410;" horiz-adv-x="1302" d="M47 0q11 84 33.5 161.5t66.5 200.5l385 1065l224 13l442 -1194q24 -68 49 -128.5t38 -87.5l13 -26l-292 -12l-115 313h-547q-61 -190 -78 -305h-219zM408 492h415l-178 491q-10 29 -18.5 60.5t-11.5 48.5l-3 16h-8q-11 -64 -31 -125z" />
<glyph unicode="&#x411;" horiz-adv-x="1275" d="M184 1434h887l-6 -213q-96 16 -219 18l-367 8v-381h148q280 0 419.5 -110t139.5 -316q0 -198 -150.5 -319t-408.5 -121h-430v1225q0 46 -3.5 98.5t-6.5 81.5zM479 188h131q144 0 216.5 66.5t72.5 179.5q0 109 -71 175.5t-218 66.5h-131v-488z" />
<glyph unicode="&#x412;" horiz-adv-x="1312" d="M184 1434h471q228 0 359 -100t131 -261q0 -243 -242 -313v-8q143 -28 223 -114.5t80 -217.5q0 -132 -73 -228.5t-192 -144t-267 -47.5h-477v1225q0 46 -3.5 98.5t-6.5 81.5zM477 184h197q119 0 184.5 61.5t65.5 170.5q0 108 -61 175.5t-187 67.5h-199v-475zM477 844h297 q4 3 10.5 8.5t23 24.5t29 40.5t23 55t10.5 69.5q0 91 -57 149t-180 58h-156v-405z" />
<glyph unicode="&#x413;" horiz-adv-x="1091" d="M184 1434h867l-11 -224q-84 17 -219 17h-342v-1037q0 -42 2.5 -89.5t4.5 -74.5l3 -26h-292v1225q0 46 -3.5 98.5t-6.5 81.5z" />
<glyph unicode="&#x414;" horiz-adv-x="1509" d="M18 188h127q64 101 109.5 236.5t71.5 306.5t40 328.5t25 374.5h871v-1246h149v-413q0 -39 2.5 -85.5t4.5 -73.5l3 -26l-235 -12l-17 422h-905v-225q0 -39 2.5 -85.5t5.5 -73.5l2 -26l-235 -12zM401 188h578v1057h-361q-16 -353 -66.5 -610.5t-150.5 -446.5z" />
<glyph unicode="&#x415;" horiz-adv-x="1224" d="M184 1434h928l-10 -203q-80 10 -174 12l-449 6v-430l531 10l-11 -217l-520 17v-443l418 7q56 1 109.5 4t79.5 5l26 3l-10 -205h-905v1225q0 46 -3.5 98.5t-6.5 81.5z" />
<glyph unicode="&#x416;" horiz-adv-x="2019" d="M4 0q64 78 105 133l458 621q-202 249 -314.5 402.5t-180.5 275.5l268 12q56 -112 143 -241.5t273 -377.5h106v400q0 46 -3 99t-6 82l-3 30l295 10v-621h112q219 299 286 397t128 212h254q-61 -120 -167 -268t-312 -402l452 -621q23 -31 52 -67t47 -56l18 -20l-323 -10 l-463 639h-84v-439q0 -42 2.5 -89.5t4.5 -74.5l3 -26h-293v629h-82l-463 -629h-313z" />
<glyph unicode="&#x417;" horiz-adv-x="1071" d="M82 31v200q17 -5 46 -13t114.5 -21t163.5 -13q119 0 192.5 65.5t73.5 186.5q0 94 -62 152.5t-166 58.5h-143v191h113q110 0 171.5 58.5t61.5 160.5q0 99 -59 155t-154 56q-66 0 -180 -19.5t-135 -21.5l-29 192q33 4 99.5 15.5t129.5 18.5t127 7q221 0 352.5 -98 t131.5 -287q0 -118 -73 -207t-195 -120v-7q121 -8 206.5 -99.5t85.5 -223.5q0 -191 -146.5 -314.5t-395.5 -123.5q-87 0 -169.5 12.5t-121.5 25.5z" />
<glyph unicode="&#x418;" horiz-adv-x="1601" d="M184 1436l289 10v-871q0 -44 -3 -94.5t-6 -78.5l-3 -29l10 -2q37 92 88 166l615 899l231 10v-1256q0 -42 2.5 -89.5t4.5 -74.5l3 -26h-287v852l9 215l-9 2q-43 -102 -96 -182l-604 -887h-231v1225q0 46 -3.5 99t-6.5 82z" />
<glyph unicode="&#x419;" horiz-adv-x="1601" d="M184 1436l289 10v-871q0 -44 -3 -94.5t-6 -78.5l-3 -29l10 -2q37 92 88 166l615 899l231 10v-1256q0 -42 2.5 -89.5t4.5 -74.5l3 -26h-287v852l9 215l-9 2q-43 -102 -96 -182l-604 -887h-231v1225q0 46 -3.5 99t-6.5 82zM399 1737l176 188q22 -20 53.5 -56.5t52.5 -59.5 t55 -41.5t73 -18.5t73 18.5t54.5 41.5t51.5 59.5t54 56.5l177 -188q-191 -166 -410 -166t-410 166z" />
<glyph unicode="&#x41a;" horiz-adv-x="1335" d="M184 1436l295 10v-617h119q43 58 81.5 112.5t65 93.5t56.5 88t43.5 71t39 69.5t30.5 57t30 60t27 53.5h272q-182 -325 -446 -658l426 -633q21 -32 47 -67.5t42 -55.5l15 -20l-313 -10l-441 649h-94v-449q0 -42 2.5 -89.5t4.5 -74.5l3 -26h-292v1225q0 46 -3.5 99t-6.5 82 z" />
<glyph unicode="&#x41b;" horiz-adv-x="1439" d="M14 215q42 18 75.5 40t62 54.5t50.5 65.5t41 85.5t32.5 101t25.5 125t20 145t16.5 173.5t14 198.5t13.5 230.5h878v-1244q0 -42 2.5 -89.5t4.5 -74.5l3 -26h-292v1241h-357q-7 -143 -14.5 -248t-18.5 -213t-25 -185.5t-33 -155t-44.5 -133t-58.5 -108t-75 -91.5t-93 -72 t-115 -60z" />
<glyph unicode="&#x41c;" horiz-adv-x="1888" d="M184 1436l244 10l432 -658q22 -33 40.5 -67t25.5 -52l8 -18h6q25 57 68 123l430 662l254 10v-1256q0 -42 2.5 -89.5t5.5 -74.5l2 -26h-285v870q0 58 2 114t4 83l2 27l-8 2q-19 -58 -82 -154l-385 -594h-88l-350 526q-33 49 -60.5 95t-39.5 67l-11 21l-6 -2 q15 -89 15 -226v-659q0 -33 2.5 -75.5t5.5 -68.5l2 -26h-223v1202q0 46 -3.5 104.5t-6.5 93.5z" />
<glyph unicode="&#x41d;" horiz-adv-x="1601" d="M184 1436l295 10v-608h643v387q0 46 -3 99t-6 82l-3 30l295 10v-1256q0 -42 2.5 -89.5t4.5 -74.5l3 -26h-293v645h-643v-455q0 -42 2.5 -89.5t4.5 -74.5l3 -26h-292v1225q0 46 -3.5 99t-6.5 82z" />
<glyph unicode="&#x41e;" horiz-adv-x="1554" d="M117 690q0 171 43 310t126.5 241t214.5 157.5t300 55.5q152 0 275 -59.5t201 -159.5t119.5 -226.5t41.5 -265.5q0 -171 -43 -310t-126.5 -240.5t-214.5 -157t-300 -55.5q-152 0 -275 59.5t-201 159t-119.5 226t-41.5 265.5zM408 741q0 -94 11 -174.5t39 -156.5t70.5 -129 t110.5 -85t156 -32q179 0 265.5 140.5t86.5 387.5q0 94 -11 174.5t-39 156.5t-70.5 129.5t-111 85.5t-155.5 32q-179 0 -265.5 -141t-86.5 -388z" />
<glyph unicode="&#x41f;" horiz-adv-x="1540" d="M184 1434h1159v-1244q0 -42 2.5 -89.5t5.5 -74.5l3 -26h-293v1241h-582v-1051q0 -42 2.5 -89.5t4.5 -74.5l3 -26h-292v1223q0 46 -3.5 99t-6.5 82z" />
<glyph unicode="&#x420;" horiz-adv-x="1239" d="M184 1434h443q128 0 232.5 -35.5t170 -95.5t100.5 -136.5t35 -160.5q0 -102 -38.5 -193t-108 -159t-174.5 -108t-230 -40h-135v-316q0 -42 2.5 -89.5t4.5 -74.5l3 -26h-292v1225q0 46 -3.5 98.5t-6.5 81.5zM479 696h103q150 0 223.5 79.5t73.5 219.5q0 112 -72.5 181 t-208.5 69h-119v-549z" />
<glyph unicode="&#x421;" horiz-adv-x="1216" d="M115 674q0 234 77.5 410.5t231 276t364.5 99.5q57 0 116.5 -7t125 -18.5t100.5 -15.5l-28 -200q-53 3 -150.5 22t-167.5 19q-177 0 -277.5 -139.5t-100.5 -375.5q0 -95 14.5 -177t47.5 -153.5t82.5 -122t123 -79.5t166.5 -29q72 0 138.5 10t97.5 20l30 9l35 -184 q-12 -7 -35.5 -16.5t-105 -26t-173.5 -16.5q-221 0 -383.5 89t-245.5 245t-83 360z" />
<glyph unicode="&#x422;" horiz-adv-x="1206" d="M47 1229l10 205h1106l-8 -203q-66 6 -164 8h-243v-1049q0 -42 2.5 -89.5t5.5 -74.5l2 -26h-293v1239l-240 4q-37 1 -81.5 -2.5t-70.5 -7.5z" />
<glyph unicode="&#x423;" horiz-adv-x="1245" d="M6 1434l301 6l299 -633q24 -52 45.5 -112t30.5 -94l10 -34h6q29 119 80 244l123 297q35 88 60.5 169.5t34.5 118.5l8 38h219q-43 -175 -168 -461l-252 -572q-62 -141 -101 -241t-47 -130l-8 -30h-260q45 114 168 313l-440 910q-23 47 -50 100t-43 82z" />
<glyph unicode="&#x424;" horiz-adv-x="1732" d="M86 750q0 93 22.5 176.5t72.5 157.5t124.5 127.5t185 85t246.5 32.5q0 47 -2.5 99t-4.5 80l-3 28l281 10v-217q136 -1 246 -32.5t184.5 -85t125 -127.5t73 -157.5t22.5 -176.5q0 -89 -22.5 -171.5t-73 -158t-125 -131.5t-185 -89.5t-245.5 -33.5q0 -38 2.5 -90t5.5 -84 l2 -33h-283l2 207q-136 1 -246.5 34.5t-184.5 89.5t-124.5 131.5t-73 157.5t-22.5 171zM362 750q0 -106 30.5 -186t84 -126.5t119 -69t141.5 -22.5v805q-50 -1 -100.5 -14.5t-100.5 -45t-88 -76.5t-62 -113.5t-24 -151.5zM1008 346q73 0 137.5 22.5t118.5 69t86 126.5 t32 186q0 84 -22.5 152.5t-59.5 114t-86 76.5t-101 44.5t-105 13.5v-805z" />
<glyph unicode="&#x425;" horiz-adv-x="1339" d="M45 1434l332 10l317 -539l172 250q37 55 75.5 125.5t58.5 113.5l20 44h250q-6 -17 -18 -47t-61 -119.5t-112 -173.5l-264 -355l359 -546l135 -197l-320 -10l-350 563l-150 -246q-50 -81 -96 -157.5t-67 -113.5l-21 -36h-256q9 19 26.5 52.5t79.5 132t132 190.5l239 327 l-331 515z" />
<glyph unicode="&#x426;" horiz-adv-x="1611" d="M184 1436l295 10v-1253h602v1032q0 46 -3 99t-6 82l-3 30l295 10v-1253h149v-418q0 -39 2.5 -85.5t5.5 -73.5l3 -26l-236 -12l-16 422h-1075v1225q0 46 -3.5 99t-6.5 82z" />
<glyph unicode="&#x427;" horiz-adv-x="1433" d="M92 1436l295 10v-365q0 -197 83 -281.5t249 -84.5q62 0 120.5 7t86.5 14l28 7v482q0 46 -3 99t-6 82l-3 30l295 10v-1256q0 -42 2.5 -89.5t4.5 -74.5l3 -26h-293v569q-12 -5 -35.5 -13t-105 -21t-174.5 -13q-270 0 -402.5 142.5t-132.5 390.5v170q0 46 -3 99t-6 82z" />
<glyph unicode="&#x428;" horiz-adv-x="2134" d="M184 1436l295 10v-1253h447v1032q0 46 -3 99t-7 82l-3 30l295 10v-1253h447v1032q0 46 -3.5 99t-6.5 82l-3 30l295 10v-1256q0 -42 2.5 -89.5t5.5 -74.5l3 -26h-1751v1225q0 46 -3.5 99t-6.5 82z" />
<glyph unicode="&#x429;" horiz-adv-x="2185" d="M184 1436l295 10v-1253h447v1032q0 46 -3 99t-7 82l-3 30l295 10v-1253h447v1032q0 46 -3.5 99t-6.5 82l-3 30l295 10v-1253h150v-418q0 -39 2.5 -85.5t4.5 -73.5l3 -26l-235 -12l-17 422h-1648v1225q0 46 -3.5 99t-6.5 82z" />
<glyph unicode="&#x42a;" horiz-adv-x="1445" d="M43 1227l14 207h613v-506h168q154 0 274.5 -48t192 -144t71.5 -228q0 -225 -142 -366.5t-396 -141.5h-451v1241h-143q-44 0 -94.5 -3.5t-78.5 -7.5zM670 195h96q93 0 159 23t100.5 63t49.5 84.5t15 97.5q0 55 -15 100t-49.5 85t-100 62.5t-157.5 22.5h-98v-538z" />
<glyph unicode="&#x42b;" horiz-adv-x="1822" d="M184 1434l295 10v-516h168q154 0 275 -48t192.5 -144.5t71.5 -227.5q0 -225 -142.5 -366.5t-396.5 -141.5h-450v1225q0 46 -3.5 98.5t-6.5 81.5zM479 195h96q93 0 159 23t100.5 63t49.5 84.5t15 97.5q0 55 -15 100t-49 85t-99.5 62.5t-157.5 22.5h-99v-538zM1331 1436 l295 10v-1256q0 -42 2.5 -89.5t5.5 -74.5l2 -26h-293v1225q0 46 -3 99t-6 82z" />
<glyph unicode="&#x42c;" horiz-adv-x="1255" d="M184 1434l295 10v-516h168q154 0 275 -48t192.5 -144.5t71.5 -227.5q0 -225 -142.5 -366.5t-396.5 -141.5h-450v1225q0 46 -3.5 98.5t-6.5 81.5zM479 195h96q93 0 159 23t100.5 63t49.5 84.5t15 97.5q0 55 -15 100t-49 85t-99.5 62.5t-157.5 22.5h-99v-538z" />
<glyph unicode="&#x42d;" horiz-adv-x="1198" d="M86 20l29 201q53 -3 150 -22t167 -19q153 0 243 119.5t109 325.5l-548 -17v221l550 -10q-8 97 -35.5 175t-77.5 137t-127.5 91.5t-178.5 32.5q-58 0 -120.5 -9.5t-96.5 -19.5l-33 -9v184q12 7 36 16.5t108.5 26t180.5 16.5q192 0 338 -88.5t223.5 -246t77.5 -359.5 q0 -124 -26 -238.5t-80.5 -214.5t-130.5 -174t-183 -116.5t-233 -42.5q-57 0 -116.5 7t-125.5 18t-100 15z" />
<glyph unicode="&#x42e;" horiz-adv-x="2119" d="M184 1436l295 10v-608h211q35 286 207 451t469 165q152 0 275 -59.5t201 -159.5t119.5 -226.5t41.5 -265.5q0 -171 -43 -310t-126.5 -240.5t-214.5 -157t-300 -55.5q-146 0 -265.5 54.5t-197.5 148t-122.5 211.5t-51.5 251h-203v-455q0 -42 2.5 -89.5t4.5 -74.5l3 -26 h-292v1225q0 46 -3.5 99t-6.5 82zM973 741q0 -94 11 -174.5t39 -156.5t70.5 -129t110.5 -85t156 -32q167 0 259.5 143.5t92.5 384.5q0 94 -11 174.5t-39 156.5t-70.5 129.5t-111 85.5t-155.5 32q-169 0 -260.5 -143.5t-91.5 -385.5z" />
<glyph unicode="&#x42f;" horiz-adv-x="1318" d="M57 0l357 575q-117 42 -188.5 148.5t-71.5 247.5q0 209 147 336t389 127h432v-1225q0 -46 3 -98.5t7 -81.5l3 -29l-295 -10v516h-195l-289 -506h-299zM440 971q0 -136 75 -203.5t204 -67.5h121v539h-115q-140 0 -212.5 -68t-72.5 -200z" />
<glyph unicode="&#x430;" horiz-adv-x="1116" d="M78 250q0 60 18 110.5t57.5 95.5t109 77.5t165.5 48.5q113 18 238 18v64q0 94 -56.5 143t-156.5 49q-76 0 -149.5 -11t-109.5 -23l-36 -11v178q15 6 44 15t120.5 24.5t187.5 15.5q120 0 206 -28.5t134 -80t69 -115.5t19 -144q-1 -42 -3 -147t-3.5 -192t-1.5 -132 q0 -20 4.5 -28.5t17.5 -8.5q16 0 35.5 10t30.5 20l12 11v-170q-7 -7 -21 -16.5t-55.5 -26t-83.5 -16.5q-129 0 -161 126q-59 -54 -146 -90t-178 -36q-78 0 -138.5 22.5t-96.5 61t-54 85.5t-18 101zM352 279q0 -49 30 -78t87 -29q45 0 97.5 22t90.5 52q0 4 5 219 q-99 -4 -175 -27q-135 -40 -135 -159z" />
<glyph unicode="&#x431;" horiz-adv-x="1212" d="M127 588q0 173 18.5 304.5t63.5 245t119.5 189.5t188.5 125.5t269 65.5q96 10 160.5 20.5t81.5 15.5l16 5l48 -226q-66 -29 -277 -49q-171 -19 -273 -70t-158 -149.5t-79 -265.5l10 -2q35 91 131 146.5t220 55.5q205 0 326.5 -127t121.5 -344q0 -255 -133.5 -401.5 t-353.5 -146.5q-239 0 -369.5 152.5t-130.5 455.5zM391 469q0 -137 58.5 -225t158.5 -88q116 0 177 95t61 263q0 128 -58.5 203.5t-160.5 75.5q-114 0 -175 -84t-61 -240z" />
<glyph unicode="&#x432;" horiz-adv-x="1122" d="M143 1024h471q181 0 273 -67t92 -185q0 -91 -47.5 -153.5t-130.5 -81.5v-7q101 -11 165 -68t64 -159q0 -149 -104 -226t-312 -77h-458v813q0 60 -3 113t-7 76zM416 178h186q71 0 116.5 36t45.5 95q0 52 -41.5 88.5t-134.5 36.5h-172v-256zM416 612h172q60 0 97.5 31.5 t37.5 87.5q0 58 -41 86.5t-109 28.5h-157v-234z" />
<glyph unicode="&#x433;" horiz-adv-x="880" d="M143 1024h703l-8 -209q-49 10 -123 10l-287 4v-659q0 -33 2.5 -75.5t5.5 -68.5l2 -26h-282v813q0 46 -3 99t-7 82z" />
<glyph unicode="&#x434;" horiz-adv-x="1253" d="M31 188h98q83 104 118 279.5t56 556.5h741v-836h130v-350q0 -33 2.5 -75.5t5.5 -68.5l2 -26l-236 -10l-14 342h-658v-162q0 -33 3 -75.5t5 -68.5l3 -26l-236 -10zM379 188h393v646h-252q-12 -251 -43 -393t-98 -253z" />
<glyph unicode="&#x435;" horiz-adv-x="1134" d="M92 496q0 254 143.5 401t370.5 147q124 0 215.5 -44.5t142.5 -122.5t69.5 -177.5t4.5 -214.5h-669q6 -137 94.5 -219t228.5 -82q76 0 152 14t114 28l39 14v-191q-5 -3 -14.5 -7.5t-43 -16.5t-70.5 -21t-96.5 -16.5t-121.5 -7.5q-257 0 -408 137t-151 379zM383 657l379 9 q-3 105 -43.5 151.5t-120.5 46.5q-87 0 -145.5 -57.5t-69.5 -149.5z" />
<glyph unicode="&#x436;" horiz-adv-x="1644" d="M10 0q59 58 133 154l299 385l-186 221q-57 65 -102.5 131t-62.5 99l-17 34l260 2q20 -68 141 -238l123 -182h88v207q0 46 -3 99t-6 82l-3 30l284 10v-428h97l119 182q47 75 79.5 134t40.5 80l9 22h245q-5 -13 -16 -37t-53.5 -93.5t-94.5 -133.5l-174 -217l291 -389 q33 -43 66 -81.5t50 -55.5l17 -17l-303 -10l-307 442h-66v-242q0 -42 3 -89.5t5 -74.5l3 -26h-283v432h-63l-310 -432h-303z" />
<glyph unicode="&#x437;" horiz-adv-x="950" d="M74 47v182q13 -6 36.5 -15t98.5 -24.5t151 -15.5q91 0 152 33.5t61 101.5q0 123 -157 123h-148v191h127q154 0 154 112q0 49 -37.5 81t-105.5 32q-44 0 -93.5 -7t-113.5 -20t-84 -16l-33 196q28 4 96 16.5t125.5 19.5t116.5 7q83 0 154.5 -15.5t130.5 -47t92.5 -86 t33.5 -127.5q0 -182 -194 -236v-6q102 -16 160.5 -71.5t58.5 -151.5q0 -141 -121 -232t-358 -91q-56 0 -107.5 7t-85.5 16.5t-60 19.5t-38 17z" />
<glyph unicode="&#x438;" horiz-adv-x="1294" d="M143 1024l281 10v-575q0 -36 -2 -79t-4 -68l-2 -25h8q33 75 76 143l366 594l273 10v-844q0 -42 2.5 -89.5t4.5 -74.5l3 -26h-279v526q0 52 4 101t8 71l3 23h-11q-29 -82 -90 -176l-356 -545h-272v813q0 46 -3 99t-7 82z" />
<glyph unicode="&#x439;" horiz-adv-x="1294" d="M143 1024l281 10v-575q0 -36 -2 -79t-4 -68l-2 -25h8q33 75 76 143l366 594l273 10v-844q0 -42 2.5 -89.5t4.5 -74.5l3 -26h-279v526q0 52 4 101t8 71l3 23h-11q-29 -82 -90 -176l-356 -545h-272v813q0 46 -3 99t-7 82zM248 1391l176 180q22 -19 54 -55t52 -56.5 t54 -37.5t73 -17q41 0 79 16.5t60 34t60.5 54.5t58.5 53l142 -172q-179 -166 -400 -166q-85 0 -171 29.5t-139 63t-99 73.5z" />
<glyph unicode="&#x43a;" horiz-adv-x="1124" d="M143 1024l285 10v-426h84l145 217q38 57 68.5 107t41.5 71l11 21h264q-29 -66 -170 -244l-163 -205l280 -419q23 -35 52.5 -74t48.5 -60l18 -22l-322 -4l-266 434h-92v-240q0 -42 2.5 -89.5t5.5 -74.5l2 -26h-282v813q0 46 -3 99t-7 82z" />
<glyph unicode="&#x43b;" horiz-adv-x="1175" d="M16 178q48 27 82 54t63 61.5t47.5 82t33 104t24 139.5t15 177t10.5 228h729v-854q0 -33 2.5 -75.5t5.5 -68.5l2 -26h-282v834h-228q-6 -154 -18.5 -264t-39.5 -215t-69 -176.5t-108.5 -127t-157.5 -86.5z" />
<glyph unicode="&#x43c;" horiz-adv-x="1519" d="M150 1024l237 10l275 -428q29 -44 49.5 -80t26.5 -50l5 -13h11q29 49 80 127l286 434l236 10l12 -844l14 -190h-264l-12 487q-1 53 2 110t6 87l4 31l-8 2q-24 -70 -92 -170l-258 -383h-84l-244 368q-24 36 -45.5 76t-30.5 62l-10 22l-10 -4q10 -82 10 -168l-2 -330 q-1 -42 2 -89.5t6 -74.5l4 -26h-204l6 813z" />
<glyph unicode="&#x43d;" horiz-adv-x="1243" d="M143 1024l285 10v-418h387v197q0 46 -3 99t-6 82l-3 30l284 10v-844q0 -42 2.5 -89.5t5.5 -74.5l3 -26h-283v424h-387v-234q0 -42 2.5 -89.5t5.5 -74.5l2 -26h-282v813q0 46 -3 99t-7 82z" />
<glyph unicode="&#x43e;" horiz-adv-x="1183" d="M96 477q0 264 139.5 415.5t382.5 151.5q219 0 344 -134.5t125 -362.5q0 -263 -139.5 -415t-382.5 -152q-219 0 -344 135t-125 362zM373 528q0 -169 55 -266.5t168 -97.5q105 0 160 83t55 238q0 185 -50 281t-173 96q-106 0 -160.5 -87.5t-54.5 -246.5z" />
<glyph unicode="&#x43f;" horiz-adv-x="1226" d="M143 1024h928v-854q0 -33 2.5 -75.5t4.5 -68.5l3 -26h-282v834h-371v-664q0 -33 2.5 -75.5t5.5 -68.5l2 -26h-282v813q0 46 -3 99t-7 82z" />
<glyph unicode="&#x440;" horiz-adv-x="1245" d="M143 1024l271 10l6 -98q64 57 128 82.5t173 25.5q131 0 230.5 -67.5t148.5 -174.5t49 -235q0 -271 -138 -429t-356 -158q-67 0 -123.5 15t-79.5 29l-24 15v-381q0 -33 2.5 -75.5t5.5 -68.5l2 -26h-282v1325q0 46 -3 99t-7 82zM424 772q4 -32 4 -156v-391q8 -7 22.5 -17 t62 -27t97.5 -17q124 0 191 97t67 245q0 174 -62.5 254t-162.5 80q-64 0 -112.5 -16.5t-106.5 -51.5z" />
<glyph unicode="&#x441;" horiz-adv-x="978" d="M94 479q0 253 137 409t367 156q61 0 153.5 -18.5t137.5 -21.5l-21 -209q-48 4 -140 25.5t-140 21.5q-96 0 -156.5 -80t-60.5 -234q0 -158 77.5 -251t219.5 -93q55 0 110.5 14t83.5 28l29 14v-193q-12 -8 -35 -19t-98 -29.5t-156 -18.5q-235 0 -371.5 138.5t-136.5 360.5z " />
<glyph unicode="&#x442;" horiz-adv-x="944" d="M37 823l10 201h860l-8 -201q-61 11 -135 13l-152 4v-670q0 -33 3 -75.5t5 -68.5l3 -26h-283v836l-129 -5z" />
<glyph unicode="&#x443;" horiz-adv-x="1056" d="M16 1024l301 10l197 -600q17 -54 30.5 -104.5t17.5 -74.5l5 -24h8q19 96 54 207l94 293q4 12 16.5 50.5t16 50.5t12.5 42.5t13 49t8.5 46t7.5 54.5h221q-14 -173 -115 -414l-258 -628q-46 -112 -89 -237.5t-63 -194.5l-20 -70l-264 12q59 164 178 379l33 59l-318 883 q-20 56 -41.5 108.5t-32.5 77.5z" />
<glyph unicode="&#x444;" horiz-adv-x="1703" d="M98 471q0 260 136 416.5t344 156.5q39 0 74.5 -9t51.5 -18l15 -9v317q0 46 -3 99t-6 82l-3 30l280 10v-557q9 6 26 15t70 24.5t107 15.5q108 0 190 -39t131 -107.5t73 -155t24 -189.5q0 -259 -133 -416t-330 -157q-44 0 -83.5 9t-57.5 18l-17 9v-358q0 -33 2.5 -75.5 t4.5 -68.5l3 -26h-278v547q-8 -6 -24 -15t-69 -24.5t-110 -15.5q-108 0 -190 39t-131 107.5t-73 155t-24 189.5zM379 492q0 -157 55.5 -243.5t155.5 -86.5q31 0 63.5 6.5t48.5 13.5l17 6v650q-31 30 -101 30q-112 0 -175.5 -96.5t-63.5 -279.5zM987 186q31 -30 119 -30 q100 0 160.5 97t60.5 275q0 160 -56 247t-157 87q-33 0 -64.5 -6.5t-47.5 -13.5l-15 -6v-650z" />
<glyph unicode="&#x445;" horiz-adv-x="1122" d="M41 1024l319 10l232 -354l63 98q55 84 93.5 145.5t49.5 80.5l11 20h238q-95 -156 -232 -336l-119 -158l285 -374l121 -156l-320 -10l-256 358l-47 -69q-54 -79 -97.5 -149t-59.5 -100l-17 -30h-262q108 160 221 299l156 195l-250 360q-29 43 -61.5 85.5t-50.5 63.5z" />
<glyph unicode="&#x446;" horiz-adv-x="1304" d="M143 1024l285 10v-846h391v625q0 46 -3 99t-6 82l-3 30l285 10v-846h139v-350q0 -33 2.5 -75.5t4.5 -68.5l3 -26l-235 -10l-15 342h-835v813q0 46 -3 99t-7 82z" />
<glyph unicode="&#x447;" horiz-adv-x="1128" d="M74 1024l284 10v-303q0 -107 53 -156t142 -49q44 0 80.5 8t51.5 16l15 9v254q0 46 -3 99t-6 82l-3 30l285 10v-844q0 -42 2.5 -89.5t4.5 -74.5l3 -26h-283v393q-9 -7 -27.5 -17.5t-81 -28t-132.5 -17.5q-74 0 -139 21t-118.5 63t-84.5 113.5t-31 164.5v121q0 46 -3 99 t-6 82z" />
<glyph unicode="&#x448;" horiz-adv-x="1779" d="M143 1024l285 10v-844h326v623q0 46 -3 99t-7 82l-3 30l285 10v-844h326v623q0 46 -3 99t-7 82l-3 30l285 10v-864q0 -33 2.5 -75.5t5.5 -68.5l2 -26h-1478v813q0 46 -3 99t-7 82z" />
<glyph unicode="&#x449;" horiz-adv-x="1837" d="M143 1024l285 10v-846h326v625q0 46 -3 99t-7 82l-3 30l285 10v-846h326v625q0 46 -3 99t-7 82l-3 30l285 10v-846h139v-350q0 -33 2.5 -75.5t5.5 -68.5l3 -26l-236 -10l-14 342h-1368v813q0 46 -3 99t-7 82z" />
<glyph unicode="&#x44a;" horiz-adv-x="1222" d="M41 827l8 197h524v-338h175q94 0 166.5 -18.5t118 -49t74.5 -74t40.5 -89.5t11.5 -99t-10.5 -100.5t-39.5 -95.5t-73.5 -82.5t-118.5 -56t-169 -21.5h-451v838h-88zM573 180h117q75 0 127.5 46t52.5 118t-51 117t-129 45h-117v-326z" />
<glyph unicode="&#x44b;" horiz-adv-x="1558" d="M143 1024l285 10v-348h158q92 0 168 -19t135 -58t92 -103.5t33 -149.5q0 -168 -121.5 -262t-306.5 -94h-430v813q0 46 -3 99t-7 82zM428 180h117q75 0 127.5 46t52.5 118t-51 117t-129 45h-117v-326zM1118 1024l285 10v-844q0 -42 2.5 -89.5t4.5 -74.5l3 -26h-283v813 q0 46 -3 99t-6 82z" />
<glyph unicode="&#x44c;" horiz-adv-x="1075" d="M143 1024l285 10v-348h158q92 0 168 -19t135 -58t92 -103.5t33 -149.5q0 -168 -121.5 -262t-306.5 -94h-430v813q0 46 -3 99t-7 82zM428 180h117q75 0 127.5 46t52.5 118t-51 117t-129 45h-117v-326z" />
<glyph unicode="&#x44d;" horiz-adv-x="976" d="M66 1001q32 4 91.5 16.5t113.5 19.5t112 7q139 0 251 -55t181.5 -171.5t69.5 -278.5q0 -256 -146.5 -407.5t-390.5 -151.5q-69 0 -136.5 14t-100.5 28l-33 15v194q11 -5 32 -13t89.5 -21t140.5 -13q234 0 262 240l-369 -18v210l369 -14q-6 103 -63.5 171.5t-159.5 68.5 q-58 0 -153 -20.5t-120 -24.5z" />
<glyph unicode="&#x44e;" horiz-adv-x="1697" d="M143 1024l285 10v-418h174q36 200 173.5 309t346.5 109q221 0 350.5 -129t129.5 -346q0 -269 -143.5 -420t-389.5 -151q-211 0 -339 117t-140 319h-162v-234q0 -42 2.5 -89.5t5.5 -74.5l2 -26h-282v813q0 46 -3 99t-7 82zM866 518q0 -76 13 -137.5t40.5 -111.5 t76.5 -77.5t116 -27.5q57 0 100 29.5t67 79t35 106t11 119.5q0 364 -238 364q-79 0 -130 -48t-71 -122t-20 -174z" />
<glyph unicode="&#x44f;" horiz-adv-x="1107" d="M66 0l237 389q-86 29 -137 101.5t-51 181.5q0 167 117.5 259.5t310.5 92.5h409v-834q0 -42 3 -89.5t5 -74.5l3 -26h-283v322h-154l-176 -322h-284zM397 670q0 -71 44.5 -118.5t123.5 -47.5h119v330h-121q-85 0 -125.5 -50t-40.5 -114z" />
<glyph unicode="&#x451;" horiz-adv-x="1134" d="M92 496q0 254 143.5 401t370.5 147q124 0 215.5 -44.5t142.5 -122.5t69.5 -177.5t4.5 -214.5h-669q6 -137 94.5 -219t228.5 -82q76 0 152 14t114 28l39 14v-191q-5 -3 -14.5 -7.5t-43 -16.5t-70.5 -21t-96.5 -16.5t-121.5 -7.5q-257 0 -408 137t-151 379zM233 1386 q0 79 49 123.5t124 44.5q73 0 114 -42t41 -117q0 -83 -46 -128.5t-124 -45.5q-69 0 -113.5 45t-44.5 120zM383 657l379 9q-3 105 -43.5 151.5t-120.5 46.5q-87 0 -145.5 -57.5t-69.5 -149.5zM659 1386q0 79 48.5 123.5t123.5 44.5q74 0 115 -42t41 -117q0 -83 -46 -128.5 t-124 -45.5q-69 0 -113.5 45t-44.5 120z" />
<glyph unicode="&#x452;" horiz-adv-x="1234" d="M2 1106v190h154v29q0 46 -3 99t-7 82l-3 30l285 10l-2 -250h356v-190h-358v-234q76 26 136 38t140 12q84 0 154 -23t127 -70.5t89 -131t32 -195.5v-322q0 -177 -76 -327t-246 -302l-135 125q111 118 153 231t42 273v264q0 145 -53 209t-187 64q-48 0 -91.5 -5.5 t-62.5 -11.5l-20 -6q2 -58 2 -119v-405q0 -33 2.5 -75.5t5.5 -68.5l2 -26h-282v1106h-154z" />
<glyph unicode="&#x453;" horiz-adv-x="880" d="M143 1024h703l-8 -209q-49 10 -123 10l-287 4v-659q0 -33 2.5 -75.5t5.5 -68.5l2 -26h-282v813q0 46 -3 99t-7 82zM340 1321l328 371l198 -205l-383 -316z" />
<glyph unicode="&#x454;" horiz-adv-x="958" d="M92 492q0 153 60.5 278t174 199.5t259.5 74.5q74 0 163.5 -19t131.5 -21l-35 -211q-52 2 -131 28.5t-140 26.5q-76 0 -136 -64t-66 -182l364 14v-210l-358 14q9 -103 78 -169.5t178 -66.5q64 0 125 14t90 28l29 14v-193q-12 -8 -33.5 -19t-91.5 -29.5t-144 -18.5 q-243 0 -380.5 140t-137.5 372z" />
<glyph unicode="&#x455;" horiz-adv-x="919" d="M100 741q0 143 103 223t252 80q80 0 187 -19t151 -21l-21 -207q-60 4 -162 24.5t-166 20.5q-54 0 -86 -18.5t-32 -55.5q0 -40 35 -72t149 -71q164 -57 242.5 -134t78.5 -202q0 -156 -105 -232.5t-288 -76.5q-71 0 -180.5 19.5t-151.5 23.5l21 208q39 -4 149.5 -26.5 t176.5 -22.5q78 0 115.5 19t37.5 63q0 40 -45 71t-151 71q-86 32 -138 58.5t-94 65t-60 89.5t-18 122z" />
<glyph unicode="&#x456;" horiz-adv-x="583" d="M125 1370q0 67 47 105t121 38q69 0 110 -37t41 -102q0 -71 -45 -112t-120 -41q-66 0 -110 41.5t-44 107.5zM143 1024l285 10v-844q0 -42 2.5 -89.5t5.5 -74.5l2 -26h-282v813q0 46 -3 99t-7 82z" />
<glyph unicode="&#x457;" horiz-adv-x="583" d="M-59 1327q0 72 43.5 111t109.5 39q65 0 101 -37t36 -105q0 -74 -39.5 -114.5t-107.5 -40.5q-62 0 -102.5 40t-40.5 107zM143 1024l285 10v-844q0 -42 2.5 -89.5t5.5 -74.5l2 -26h-282v813q0 46 -3 99t-7 82zM375 1327q0 72 43.5 111t109.5 39q67 0 102.5 -36.5 t35.5 -105.5q0 -74 -39.5 -114.5t-108.5 -40.5q-62 0 -102.5 40t-40.5 107z" />
<glyph unicode="&#x458;" horiz-adv-x="583" d="M-33 -424q38 49 56 74t46.5 72.5t53.5 101.5q16 32 24 76.5t8.5 69.5t0.5 83v760q0 46 -3 99t-7 82l-3 30l285 10v-981q0 -155 -39 -227q-29 -55 -78.5 -118t-89.5 -105.5t-125 -128.5zM133 1370q0 67 47 105t121 38q69 0 110.5 -37t41.5 -102q0 -71 -45.5 -112 t-120.5 -41q-66 0 -110 41.5t-44 107.5z" />
<glyph unicode="&#x459;" horiz-adv-x="1685" d="M16 176q77 42 119.5 85t78 134.5t52 238.5t25.5 390h729v-342h178q188 0 308 -87t120 -253q0 -155 -113 -248.5t-301 -93.5h-464v834h-228q-6 -162 -19.5 -277.5t-40.5 -218t-70 -171.5t-107.5 -120.5t-155.5 -81.5zM1020 176h119q88 0 140 43.5t52 114.5 q0 85 -44.5 128.5t-129.5 43.5h-137v-330z" />
<glyph unicode="&#x45a;" horiz-adv-x="1724" d="M143 1024l285 10v-418h356v197q0 46 -3 99t-6 82l-3 30l285 10v-352h178q92 0 167.5 -18.5t135 -58t92.5 -106.5t33 -157q0 -162 -112 -252t-302 -90h-465v424h-356v-234q0 -42 2.5 -89.5t5.5 -74.5l2 -26h-282v813q0 46 -3 99t-7 82zM1057 176h119q88 0 140 43.5 t52 114.5q0 85 -44.5 128.5t-129.5 43.5h-137v-330z" />
<glyph unicode="&#x45b;" horiz-adv-x="1253" d="M2 1106v190h154v29q0 46 -3 99t-7 82l-3 30l285 10l-2 -250h356v-190h-358v-234q76 26 136 38t140 12q84 0 157 -23t134 -70.5t96 -131t35 -195.5v-332q0 -41 3 -83.5t5 -64.5l3 -22h-293v444q0 137 -62.5 205t-195.5 68q-38 0 -79 -5.5t-63 -11.5l-22 -6q10 -45 10 -119 v-405q0 -33 2.5 -75.5t5.5 -68.5l2 -26h-282v1106h-154z" />
<glyph unicode="&#x45c;" horiz-adv-x="1124" d="M143 1024l285 10v-426h84l145 217q38 57 68.5 107t41.5 71l11 21h264q-29 -66 -170 -244l-163 -205l280 -419q23 -35 52.5 -74t48.5 -60l18 -22l-322 -4l-266 434h-92v-240q0 -42 2.5 -89.5t5.5 -74.5l2 -26h-282v813q0 46 -3 99t-7 82zM471 1319l328 371l198 -205 l-383 -316z" />
<glyph unicode="&#x45e;" horiz-adv-x="1056" d="M16 1024l301 10l197 -600q17 -54 30.5 -104.5t17.5 -74.5l5 -24h8q19 96 54 207l94 293q4 12 16.5 50.5t16 50.5t12.5 42.5t13 49t8.5 46t7.5 54.5h221q-14 -173 -115 -414l-258 -628q-46 -112 -89 -237.5t-63 -194.5l-20 -70l-264 12q59 164 178 379l33 59l-318 883 q-20 56 -41.5 108.5t-32.5 77.5zM147 1391l177 180q22 -19 54 -55t52 -56.5t54 -37.5t73 -17q41 0 79 16.5t60 34t60.5 54.5t58.5 53l141 -172q-179 -166 -399 -166q-123 0 -229 50.5t-181 115.5z" />
<glyph unicode="&#x45f;" horiz-adv-x="1247" d="M143 1024l285 10v-844h391v623q0 46 -3 99t-6 82l-3 30l285 10v-864q0 -33 2.5 -75.5t5.5 -68.5l2 -26h-367v-162q0 -33 2.5 -75.5t4.5 -68.5l3 -26l-241 -10l-15 342h-333v813q0 46 -3 99t-7 82z" />
<glyph unicode="&#x490;" horiz-adv-x="1093" d="M184 1434h654l30 333h183l-11 -542l-561 18v-1053q0 -42 2.5 -89.5t4.5 -74.5l3 -26h-292v1225q0 46 -3.5 98.5t-6.5 81.5z" />
<glyph unicode="&#x491;" horiz-adv-x="880" d="M143 1024h492l4 82l4 192h215l-20 -485l-410 10v-653q0 -33 2.5 -75.5t5.5 -68.5l2 -26h-282v813q0 46 -3 99t-7 82z" />
<glyph unicode="&#x2000;" horiz-adv-x="1030" />
<glyph unicode="&#x2001;" horiz-adv-x="2060" />
<glyph unicode="&#x2002;" horiz-adv-x="1030" />
<glyph unicode="&#x2003;" horiz-adv-x="2060" />
<glyph unicode="&#x2004;" horiz-adv-x="686" />
<glyph unicode="&#x2005;" horiz-adv-x="515" />
<glyph unicode="&#x2006;" horiz-adv-x="343" />
<glyph unicode="&#x2007;" horiz-adv-x="343" />
<glyph unicode="&#x2008;" horiz-adv-x="257" />
<glyph unicode="&#x2009;" horiz-adv-x="412" />
<glyph unicode="&#x200a;" horiz-adv-x="114" />
<glyph unicode="&#x2010;" horiz-adv-x="882" d="M143 475v223l596 21v-223z" />
<glyph unicode="&#x2011;" horiz-adv-x="882" d="M143 475v223l596 21v-223z" />
<glyph unicode="&#x2012;" horiz-adv-x="882" d="M143 475v223l596 21v-223z" />
<glyph unicode="&#x2013;" horiz-adv-x="1343" d="M147 489v234h1047v-234h-1047z" />
<glyph unicode="&#x2014;" horiz-adv-x="1699" d="M141 496v233h1415v-233h-1415z" />
<glyph unicode="&#x2018;" horiz-adv-x="546" d="M96 1016q0 128 68.5 264t167.5 223l131 -108q-51 -47 -95 -112t-65 -128q57 -11 92 -54t35 -104q0 -77 -49.5 -122.5t-120.5 -45.5q-73 0 -118.5 46t-45.5 141z" />
<glyph unicode="&#x2019;" horiz-adv-x="530" d="M84 969q51 47 95 111.5t65 127.5q-57 11 -92 54t-35 104q0 77 49.5 122.5t120.5 45.5q73 0 118.5 -46t45.5 -140q0 -128 -68.5 -265t-167.5 -223z" />
<glyph unicode="&#x201a;" horiz-adv-x="563" d="M80 -268q51 47 95 111.5t65 127.5q-57 11 -92 54t-35 104q0 77 49.5 122.5t120.5 45.5q73 0 118 -45.5t45 -140.5q0 -128 -68 -265t-167 -223z" />
<glyph unicode="&#x201c;" horiz-adv-x="964" d="M96 1016q0 128 68.5 264t167.5 223l131 -108q-51 -47 -95 -112t-65 -128q57 -11 92 -54t35 -104q0 -77 -49.5 -122.5t-120.5 -45.5q-73 0 -118.5 46t-45.5 141zM514 1016q0 128 68.5 264t167.5 223l131 -108q-51 -47 -95 -112t-65 -128q57 -11 92 -54t35 -104 q0 -77 -49.5 -122.5t-120.5 -45.5q-73 0 -118.5 46t-45.5 141z" />
<glyph unicode="&#x201d;" horiz-adv-x="948" d="M84 969q51 47 95 111.5t65 127.5q-57 11 -92 54t-35 104q0 77 49.5 122.5t120.5 45.5q73 0 118.5 -46t45.5 -140q0 -128 -68.5 -265t-167.5 -223zM502 969q51 47 95 111.5t65 127.5q-57 11 -92 54t-35 104q0 77 49.5 122.5t120.5 45.5q73 0 118 -45.5t45 -140.5 q0 -128 -68 -265t-167 -223z" />
<glyph unicode="&#x201e;" horiz-adv-x="983" d="M80 -268q51 47 95 111.5t65 127.5q-57 11 -92 54t-35 104q0 77 49.5 122.5t120.5 45.5q73 0 118 -45.5t45 -140.5q0 -128 -68 -265t-167 -223zM500 -268q51 47 94.5 111.5t64.5 127.5q-57 11 -92 54t-35 104q0 77 49.5 122.5t120.5 45.5q73 0 118.5 -46t45.5 -140 q0 -128 -68 -265t-167 -223z" />
<glyph unicode="&#x2020;" horiz-adv-x="1142" d="M82 750v274l358 -16l-10 456h283l-11 -456l359 16v-274l-359 16l11 -1182l-140 -96l-143 96l10 1182z" />
<glyph unicode="&#x2021;" horiz-adv-x="1236" d="M129 -133v315l360 -18l-28 317l45 299l-377 -30v315l377 -31l-35 430h295l-35 -430l377 31v-315l-377 30l45 -299l-28 -317l360 18v-315l-360 18l18 -397h-295l18 397z" />
<glyph unicode="&#x2022;" horiz-adv-x="712" d="M111 610q0 105 65.5 176.5t179.5 71.5t180 -71.5t66 -176.5t-66 -176.5t-180 -71.5t-179.5 71.5t-65.5 176.5z" />
<glyph unicode="&#x2026;" horiz-adv-x="1603" d="M117 123q0 82 47.5 127t124.5 45q64 0 110.5 -45.5t46.5 -114.5q0 -78 -50.5 -122t-123.5 -44q-71 0 -113 41t-42 113zM643 123q0 82 47.5 127t124.5 45q65 0 111.5 -45.5t46.5 -114.5q0 -78 -50.5 -122t-123.5 -44q-71 0 -113.5 41.5t-42.5 112.5zM1159 123 q0 82 47.5 127t124.5 45q65 0 111.5 -45.5t46.5 -114.5q0 -78 -50.5 -122t-123.5 -44q-71 0 -113.5 41.5t-42.5 112.5z" />
<glyph unicode="&#x202f;" horiz-adv-x="412" />
<glyph unicode="&#x2030;" horiz-adv-x="2881" d="M90 1077q0 170 107.5 281.5t285.5 111.5q198 0 306 -98t108 -270q0 -180 -119 -296t-303 -116q-177 0 -281 106.5t-104 280.5zM356 0l979 1434h322l-977 -1434h-324zM397 1094q0 -102 25.5 -164t73.5 -62q92 0 92 201q0 50 -4 86.5t-14 69.5t-30.5 50t-50.5 17 q-28 0 -47 -15t-28.5 -44t-13 -61.5t-3.5 -77.5zM1135 367q0 170 107.5 281.5t285.5 111.5q197 0 305.5 -98.5t108.5 -270.5q0 -180 -118.5 -295.5t-303.5 -115.5q-177 0 -281 106.5t-104 280.5zM1442 383q0 -102 25 -163.5t73 -61.5q92 0 92 200q0 50 -3.5 86.5t-13.5 70 t-30.5 50.5t-50.5 17q-28 0 -47 -15t-28.5 -44.5t-13 -62t-3.5 -77.5zM1989 367q0 170 107.5 281.5t285.5 111.5q197 0 305.5 -98.5t108.5 -270.5q0 -180 -118.5 -295.5t-303.5 -115.5q-177 0 -281 106.5t-104 280.5zM2296 383q0 -102 25 -163.5t73 -61.5q92 0 92 200 q0 50 -3.5 86.5t-13.5 70t-30.5 50.5t-50.5 17q-28 0 -47 -15t-28.5 -44.5t-13 -62t-3.5 -77.5z" />
<glyph unicode="&#x2039;" horiz-adv-x="743" d="M51 492v59l385 491l217 -135l-286 -379l290 -383l-221 -145z" />
<glyph unicode="&#x203a;" horiz-adv-x="743" d="M86 145l291 383l-287 379l217 135l385 -491v-59l-385 -492z" />
<glyph unicode="&#x2044;" horiz-adv-x="1044" d="M-8 0l811 1436h250l-809 -1436h-252z" />
<glyph unicode="&#x205f;" horiz-adv-x="515" />
<glyph unicode="&#x20ac;" horiz-adv-x="1439" d="M106 463v192h195v19q0 63 2 96h-197v193h226q57 236 213 366.5t409 130.5q57 0 121 -7t137 -18.5t105 -15.5l-29 -200q-52 3 -160 22t-178 19q-135 0 -219 -77.5t-117 -219.5h605l-27 -193h-600v-25q0 -61 2 -90h563l-24 -192h-506q82 -279 374 -279q88 0 159.5 10 t99.5 20l28 9l60 -176q-5 -3 -14 -7.5t-41.5 -16t-70 -20.5t-99.5 -16t-130 -7q-273 0 -443 128.5t-226 354.5h-218z" />
<glyph unicode="&#x2122;" horiz-adv-x="1710" d="M88 1268l6 168h578l-6 -168l-166 12v-348l6 -150h-244v498zM717 1436l205 8l151 -221q26 -39 44 -75.5t23 -53.5l5 -17h4q27 78 74 158l131 217l194 -8v-512q0 -32 2 -69t4 -58l2 -21h-243v150q0 59 4 109t8 70l4 20l-6 2q-24 -60 -51 -101l-119 -178h-82l-117 160 q-18 24 -37.5 58t-29.5 56l-10 21l-5 -2q29 -71 29 -180v-54l8 -131h-180v471q0 36 -3 81t-6 72z" />
<glyph unicode="&#x2206;" horiz-adv-x="1341" d="M72 59l583 1375h107l502 -1379l-31 -55h-1124zM350 180h627l-260 703q-12 33 -21.5 71.5t-13.5 61.5l-4 22h-4q1 0 -5 -25t-17 -62.5t-21 -65.5z" />
<glyph unicode="&#x221a;" horiz-adv-x="1417" d="M55 838v186h400l196 -598q16 -48 30 -99.5t20 -78.5l6 -27h8q12 99 59 240l359 1075h292l-581 -1536l-307 -10l-306 848h-176z" />
<glyph unicode="&#x221e;" horiz-adv-x="1552" d="M125 569q0 75 28.5 137.5t74 100.5t99.5 59t109 21q96 0 187.5 -37.5t193.5 -128.5q20 23 43.5 44t66.5 53t97 51.5t109 19.5q119 0 206.5 -80t87.5 -195q0 -75 -28.5 -137t-74 -100.5t-99.5 -59t-109 -20.5q-96 0 -187.5 37.5t-193.5 128.5q-151 -168 -315 -168 q-119 0 -207 79.5t-88 194.5zM322 582q0 -45 30 -73t78 -28q46 0 94.5 17.5t73.5 35.5l25 17q-122 125 -207 125q-41 0 -67.5 -26.5t-26.5 -67.5zM930 633q122 -125 207 -125q42 0 68 28.5t26 75.5q0 41 -30.5 65.5t-78.5 24.5q-46 0 -94 -17t-73 -35z" />
<glyph unicode="&#x2248;" horiz-adv-x="1206" d="M137 375q1 4 4 10.5t15 26t26.5 37t39 39t53.5 37t70 26t87 10.5q69 0 124.5 -14.5t86 -31.5t74.5 -31.5t92 -14.5q33 0 60 7.5t42.5 18t26 21t14.5 18.5l4 7l113 -138q-3 -8 -9 -20.5t-29 -44.5t-51.5 -56.5t-79 -44.5t-109.5 -20q-61 0 -115.5 14.5t-89 31.5t-85 31.5 t-104.5 14.5q-28 0 -53 -7.5t-40.5 -17.5t-27.5 -20.5t-17 -17.5l-5 -8zM137 768q1 4 4 10.5t15 26t26.5 37t39 39t53.5 37t70 26t87 10.5q69 0 124.5 -14.5t86 -31.5t74.5 -31.5t92 -14.5q33 0 60 7.5t42.5 18t26 21t14.5 17.5l4 8l113 -137q-3 -8 -9 -20.5t-29 -44.5 t-51.5 -57t-79 -45t-109.5 -20q-61 0 -115.5 14.5t-89 31.5t-85 31.5t-104.5 14.5q-44 0 -80 -18t-49 -36l-14 -17z" />
<glyph unicode="&#x2260;" horiz-adv-x="1124" d="M106 90l105 160h-68v213h209l144 217h-353v213h492l194 295l197 -144l-100 -151h59v-213h-201l-143 -217h344v-213h-483l-199 -301z" />
<glyph unicode="&#x2264;" horiz-adv-x="1030" d="M135 86v229h643l-643 269v121l713 337v-260l-301 -131l301 -106v-459h-713z" />
<glyph unicode="&#x2265;" horiz-adv-x="1030" d="M182 86v459l301 106l-301 131v260l713 -337v-121l-645 -269h645v-229h-713z" />
<glyph unicode="&#x25ca;" horiz-adv-x="1273" d="M41 651v105l502 678h188l502 -682v-105l-502 -678h-188zM324 721l325 -473l297 440l-323 461z" />
<glyph unicode="&#x25fc;" horiz-adv-x="1034" d="M0 0v1034h1034v-1034h-1034z" />
</font>
</defs>
</svg>
